<mxfile host="app.diagrams.net" modified="2024-05-18T05:56:40.256Z" agent="Mozilla/5.0 (Windows NT 10.0; Win64; x64) AppleWebKit/537.36 (KHTML, like Gecko) Chrome/125.0.0.0 Safari/537.36" etag="pl_aTUHA-YNSmSAJpHTk" version="24.4.4" type="device">
  <diagram name="Page-1" id="dV3X1OFoHV92Yx0GUWib">
    <mxGraphModel dx="4014" dy="1106" grid="1" gridSize="10" guides="1" tooltips="1" connect="1" arrows="1" fold="1" page="1" pageScale="1" pageWidth="850" pageHeight="1100" math="0" shadow="0">
      <root>
        <mxCell id="0" />
        <mxCell id="1" parent="0" />
        <mxCell id="lDUNnZKXfMlLJSPLOupV-6" style="edgeStyle=orthogonalEdgeStyle;rounded=0;orthogonalLoop=1;jettySize=auto;html=1;exitX=1;exitY=0.5;exitDx=0;exitDy=0;entryX=0;entryY=0.5;entryDx=0;entryDy=0;" parent="1" source="lDUNnZKXfMlLJSPLOupV-2" target="lDUNnZKXfMlLJSPLOupV-3" edge="1">
          <mxGeometry relative="1" as="geometry">
            <Array as="points">
              <mxPoint x="-220" y="1360" />
              <mxPoint x="-220" y="1360" />
            </Array>
          </mxGeometry>
        </mxCell>
        <mxCell id="lDUNnZKXfMlLJSPLOupV-12" style="edgeStyle=orthogonalEdgeStyle;rounded=0;orthogonalLoop=1;jettySize=auto;html=1;exitX=1;exitY=0.5;exitDx=0;exitDy=0;entryX=0.5;entryY=1;entryDx=0;entryDy=0;" parent="1" edge="1">
          <mxGeometry relative="1" as="geometry">
            <mxPoint x="-300" y="1360" as="sourcePoint" />
            <mxPoint x="-240" y="1120" as="targetPoint" />
          </mxGeometry>
        </mxCell>
        <mxCell id="lDUNnZKXfMlLJSPLOupV-2" value="PC" style="rounded=0;whiteSpace=wrap;html=1;rotation=0;" parent="1" vertex="1">
          <mxGeometry x="-380" y="1280" width="121" height="160" as="geometry" />
        </mxCell>
        <mxCell id="lDUNnZKXfMlLJSPLOupV-24" value="imm value" style="edgeStyle=orthogonalEdgeStyle;rounded=0;orthogonalLoop=1;jettySize=auto;html=1;exitX=1;exitY=0.5;exitDx=0;exitDy=0;entryX=0.5;entryY=0;entryDx=0;entryDy=0;" parent="1" source="lDUNnZKXfMlLJSPLOupV-3" target="lDUNnZKXfMlLJSPLOupV-23" edge="1">
          <mxGeometry relative="1" as="geometry" />
        </mxCell>
        <mxCell id="lDUNnZKXfMlLJSPLOupV-91" style="edgeStyle=orthogonalEdgeStyle;rounded=0;orthogonalLoop=1;jettySize=auto;html=1;exitX=1;exitY=0.5;exitDx=0;exitDy=0;entryX=0;entryY=0.5;entryDx=0;entryDy=0;" parent="1" source="lDUNnZKXfMlLJSPLOupV-3" target="lDUNnZKXfMlLJSPLOupV-90" edge="1">
          <mxGeometry relative="1" as="geometry" />
        </mxCell>
        <mxCell id="lDUNnZKXfMlLJSPLOupV-3" value="INSTRUCTION MEMORY&lt;div&gt;&lt;br&gt;&lt;/div&gt;" style="whiteSpace=wrap;html=1;aspect=fixed;" parent="1" vertex="1">
          <mxGeometry x="-161" y="1240" width="240" height="240" as="geometry" />
        </mxCell>
        <mxCell id="lDUNnZKXfMlLJSPLOupV-35" value="OP CODE" style="edgeStyle=orthogonalEdgeStyle;rounded=0;orthogonalLoop=1;jettySize=auto;html=1;exitX=1;exitY=0.25;exitDx=0;exitDy=0;entryX=0;entryY=0.5;entryDx=0;entryDy=0;" parent="1" source="lDUNnZKXfMlLJSPLOupV-5" target="lDUNnZKXfMlLJSPLOupV-30" edge="1">
          <mxGeometry relative="1" as="geometry" />
        </mxCell>
        <mxCell id="lDUNnZKXfMlLJSPLOupV-5" value="" style="rounded=0;whiteSpace=wrap;html=1;" parent="1" vertex="1">
          <mxGeometry x="202" y="840" width="80" height="730" as="geometry" />
        </mxCell>
        <mxCell id="lDUNnZKXfMlLJSPLOupV-19" style="edgeStyle=orthogonalEdgeStyle;rounded=0;orthogonalLoop=1;jettySize=auto;html=1;exitX=0.5;exitY=0;exitDx=0;exitDy=0;entryX=0;entryY=0.5;entryDx=0;entryDy=0;" parent="1" source="lDUNnZKXfMlLJSPLOupV-9" target="lDUNnZKXfMlLJSPLOupV-17" edge="1">
          <mxGeometry relative="1" as="geometry">
            <Array as="points">
              <mxPoint x="-221" y="1040" />
              <mxPoint x="-600" y="1040" />
              <mxPoint x="-600" y="1360" />
            </Array>
          </mxGeometry>
        </mxCell>
        <mxCell id="lDUNnZKXfMlLJSPLOupV-9" value="ADDER" style="shape=trapezoid;perimeter=trapezoidPerimeter;whiteSpace=wrap;html=1;fixedSize=1;" parent="1" vertex="1">
          <mxGeometry x="-281" y="1060" width="120" height="60" as="geometry" />
        </mxCell>
        <mxCell id="lDUNnZKXfMlLJSPLOupV-13" value="+1" style="rounded=0;whiteSpace=wrap;html=1;" parent="1" vertex="1">
          <mxGeometry x="-217" y="1160" width="30" height="30" as="geometry" />
        </mxCell>
        <mxCell id="lDUNnZKXfMlLJSPLOupV-14" style="edgeStyle=orthogonalEdgeStyle;rounded=0;orthogonalLoop=1;jettySize=auto;html=1;exitX=0.5;exitY=0;exitDx=0;exitDy=0;entryX=0.662;entryY=1;entryDx=0;entryDy=0;entryPerimeter=0;" parent="1" source="lDUNnZKXfMlLJSPLOupV-13" target="lDUNnZKXfMlLJSPLOupV-9" edge="1">
          <mxGeometry relative="1" as="geometry" />
        </mxCell>
        <mxCell id="pzNhr9gsS4aFCZHYoq7B-2" style="edgeStyle=orthogonalEdgeStyle;rounded=0;orthogonalLoop=1;jettySize=auto;html=1;exitX=0.5;exitY=1;exitDx=0;exitDy=0;entryX=0;entryY=0.5;entryDx=0;entryDy=0;" edge="1" parent="1" source="lDUNnZKXfMlLJSPLOupV-17" target="Ecp2xdZPeIfjH8BMsN1N-1">
          <mxGeometry relative="1" as="geometry" />
        </mxCell>
        <mxCell id="lDUNnZKXfMlLJSPLOupV-17" value="MUX" style="ellipse;whiteSpace=wrap;html=1;aspect=fixed;" parent="1" vertex="1">
          <mxGeometry x="-580" y="1315" width="90" height="90" as="geometry" />
        </mxCell>
        <mxCell id="lDUNnZKXfMlLJSPLOupV-21" style="edgeStyle=orthogonalEdgeStyle;rounded=0;orthogonalLoop=1;jettySize=auto;html=1;exitX=1;exitY=0.5;exitDx=0;exitDy=0;entryX=-0.012;entryY=0.294;entryDx=0;entryDy=0;entryPerimeter=0;" parent="1" source="lDUNnZKXfMlLJSPLOupV-2" target="lDUNnZKXfMlLJSPLOupV-5" edge="1">
          <mxGeometry relative="1" as="geometry">
            <Array as="points">
              <mxPoint x="-190" y="1360" />
              <mxPoint x="-190" y="1200" />
              <mxPoint y="1200" />
              <mxPoint y="1040" />
            </Array>
          </mxGeometry>
        </mxCell>
        <mxCell id="lDUNnZKXfMlLJSPLOupV-44" style="edgeStyle=orthogonalEdgeStyle;rounded=0;orthogonalLoop=1;jettySize=auto;html=1;exitX=1;exitY=0.5;exitDx=0;exitDy=0;entryX=0.5;entryY=1;entryDx=0;entryDy=0;" parent="1" source="lDUNnZKXfMlLJSPLOupV-23" target="lDUNnZKXfMlLJSPLOupV-31" edge="1">
          <mxGeometry relative="1" as="geometry" />
        </mxCell>
        <mxCell id="lDUNnZKXfMlLJSPLOupV-49" value="imm value" style="edgeLabel;html=1;align=center;verticalAlign=middle;resizable=0;points=[];" parent="lDUNnZKXfMlLJSPLOupV-44" vertex="1" connectable="0">
          <mxGeometry x="0.849" y="-1" relative="1" as="geometry">
            <mxPoint as="offset" />
          </mxGeometry>
        </mxCell>
        <mxCell id="lDUNnZKXfMlLJSPLOupV-23" value="Sign Extend" style="ellipse;whiteSpace=wrap;html=1;" parent="1" vertex="1">
          <mxGeometry x="80" y="1584" width="121" height="110" as="geometry" />
        </mxCell>
        <mxCell id="pzNhr9gsS4aFCZHYoq7B-1" value="Call_PC" style="edgeStyle=orthogonalEdgeStyle;rounded=0;orthogonalLoop=1;jettySize=auto;html=1;exitX=1;exitY=0.25;exitDx=0;exitDy=0;entryX=0;entryY=1;entryDx=0;entryDy=0;" edge="1" parent="1" source="lDUNnZKXfMlLJSPLOupV-27" target="Ecp2xdZPeIfjH8BMsN1N-1">
          <mxGeometry relative="1" as="geometry">
            <Array as="points">
              <mxPoint x="741" y="1300" />
              <mxPoint x="741" y="1850" />
              <mxPoint x="-640" y="1850" />
              <mxPoint x="-640" y="1497" />
              <mxPoint x="-580" y="1497" />
              <mxPoint x="-580" y="1507" />
            </Array>
          </mxGeometry>
        </mxCell>
        <mxCell id="lDUNnZKXfMlLJSPLOupV-27" value="&lt;div&gt;REGISTERS&lt;/div&gt;&lt;div&gt;&lt;br&gt;&lt;/div&gt;" style="whiteSpace=wrap;html=1;aspect=fixed;" parent="1" vertex="1">
          <mxGeometry x="481" y="1240" width="240" height="240" as="geometry" />
        </mxCell>
        <mxCell id="lDUNnZKXfMlLJSPLOupV-28" value="Read Reg2" style="edgeStyle=orthogonalEdgeStyle;rounded=0;orthogonalLoop=1;jettySize=auto;html=1;exitX=0.99;exitY=0.762;exitDx=0;exitDy=0;entryX=0;entryY=0.5;entryDx=0;entryDy=0;exitPerimeter=0;" parent="1" source="lDUNnZKXfMlLJSPLOupV-5" target="lDUNnZKXfMlLJSPLOupV-27" edge="1">
          <mxGeometry relative="1" as="geometry">
            <Array as="points">
              <mxPoint x="281" y="1360" />
            </Array>
          </mxGeometry>
        </mxCell>
        <mxCell id="lDUNnZKXfMlLJSPLOupV-29" value="Read Reg1" style="edgeStyle=orthogonalEdgeStyle;rounded=0;orthogonalLoop=1;jettySize=auto;html=1;exitX=1;exitY=0.75;exitDx=0;exitDy=0;entryX=-0.004;entryY=0.332;entryDx=0;entryDy=0;entryPerimeter=0;" parent="1" source="lDUNnZKXfMlLJSPLOupV-5" target="lDUNnZKXfMlLJSPLOupV-27" edge="1">
          <mxGeometry x="0.1239" y="30" relative="1" as="geometry">
            <Array as="points">
              <mxPoint x="282" y="1320" />
            </Array>
            <mxPoint as="offset" />
          </mxGeometry>
        </mxCell>
        <mxCell id="lDUNnZKXfMlLJSPLOupV-89" value="Stall" style="edgeStyle=orthogonalEdgeStyle;rounded=0;orthogonalLoop=1;jettySize=auto;html=1;exitX=0.5;exitY=0;exitDx=0;exitDy=0;entryX=0.5;entryY=0;entryDx=0;entryDy=0;" parent="1" source="lDUNnZKXfMlLJSPLOupV-30" target="lDUNnZKXfMlLJSPLOupV-2" edge="1">
          <mxGeometry relative="1" as="geometry" />
        </mxCell>
        <mxCell id="lDUNnZKXfMlLJSPLOupV-30" value="Control Unit&lt;div&gt;&lt;br&gt;&lt;/div&gt;" style="ellipse;whiteSpace=wrap;html=1;" parent="1" vertex="1">
          <mxGeometry x="480" y="840" width="240" height="200" as="geometry" />
        </mxCell>
        <mxCell id="lDUNnZKXfMlLJSPLOupV-61" value="ALU_SRC" style="edgeStyle=orthogonalEdgeStyle;rounded=0;orthogonalLoop=1;jettySize=auto;html=1;exitX=0.993;exitY=0.236;exitDx=0;exitDy=0;exitPerimeter=0;" parent="1" edge="1">
          <mxGeometry relative="1" as="geometry">
            <mxPoint x="933.0000000000005" y="890.0000000000002" as="sourcePoint" />
            <mxPoint x="1213" y="1260" as="targetPoint" />
            <Array as="points">
              <mxPoint x="1212" y="890" />
              <mxPoint x="1212" y="1200" />
              <mxPoint x="1213" y="1300" />
            </Array>
          </mxGeometry>
        </mxCell>
        <mxCell id="lDUNnZKXfMlLJSPLOupV-62" value="OP_CODE" style="edgeStyle=orthogonalEdgeStyle;rounded=0;orthogonalLoop=1;jettySize=auto;html=1;exitX=1;exitY=0.25;exitDx=0;exitDy=0;entryX=0.5;entryY=0;entryDx=0;entryDy=0;" parent="1" source="lDUNnZKXfMlLJSPLOupV-31" target="lDUNnZKXfMlLJSPLOupV-39" edge="1">
          <mxGeometry relative="1" as="geometry">
            <Array as="points">
              <mxPoint x="919" y="1030" />
              <mxPoint x="1280" y="1030" />
              <mxPoint x="1280" y="1120" />
            </Array>
          </mxGeometry>
        </mxCell>
        <mxCell id="lDUNnZKXfMlLJSPLOupV-71" value="Read Data2" style="edgeStyle=orthogonalEdgeStyle;rounded=0;orthogonalLoop=1;jettySize=auto;html=1;exitX=1;exitY=0.75;exitDx=0;exitDy=0;entryX=0;entryY=0.75;entryDx=0;entryDy=0;" parent="1" source="lDUNnZKXfMlLJSPLOupV-31" target="lDUNnZKXfMlLJSPLOupV-50" edge="1">
          <mxGeometry relative="1" as="geometry">
            <Array as="points">
              <mxPoint x="960" y="1350" />
              <mxPoint x="960" y="1540" />
              <mxPoint x="1520" y="1540" />
              <mxPoint x="1520" y="1350" />
            </Array>
          </mxGeometry>
        </mxCell>
        <mxCell id="lDUNnZKXfMlLJSPLOupV-94" value="STALL" style="edgeStyle=orthogonalEdgeStyle;rounded=0;orthogonalLoop=1;jettySize=auto;html=1;exitX=0.5;exitY=0;exitDx=0;exitDy=0;entryX=0.5;entryY=0;entryDx=0;entryDy=0;" parent="1" source="lDUNnZKXfMlLJSPLOupV-30" target="lDUNnZKXfMlLJSPLOupV-90" edge="1">
          <mxGeometry x="0.0059" y="10" relative="1" as="geometry">
            <Array as="points">
              <mxPoint x="600" y="710" />
              <mxPoint x="120" y="710" />
              <mxPoint x="120" y="1110" />
            </Array>
            <mxPoint as="offset" />
          </mxGeometry>
        </mxCell>
        <mxCell id="lDUNnZKXfMlLJSPLOupV-100" style="edgeStyle=orthogonalEdgeStyle;rounded=0;orthogonalLoop=1;jettySize=auto;html=1;entryX=0;entryY=1;entryDx=0;entryDy=0;" parent="1" target="lDUNnZKXfMlLJSPLOupV-17" edge="1">
          <mxGeometry relative="1" as="geometry">
            <Array as="points">
              <mxPoint x="1730" y="1255" />
              <mxPoint x="1730" y="1735" />
              <mxPoint x="-750" y="1735" />
              <mxPoint x="-750" y="1390" />
              <mxPoint x="-670" y="1390" />
            </Array>
            <mxPoint x="1730" y="1255" as="sourcePoint" />
            <mxPoint x="-670" y="1480" as="targetPoint" />
          </mxGeometry>
        </mxCell>
        <mxCell id="lDUNnZKXfMlLJSPLOupV-121" value="PC" style="edgeStyle=orthogonalEdgeStyle;rounded=0;orthogonalLoop=1;jettySize=auto;html=1;exitX=1.004;exitY=0.338;exitDx=0;exitDy=0;entryX=-0.033;entryY=0.338;entryDx=0;entryDy=0;exitPerimeter=0;entryPerimeter=0;" parent="1" source="lDUNnZKXfMlLJSPLOupV-31" target="lDUNnZKXfMlLJSPLOupV-50" edge="1">
          <mxGeometry relative="1" as="geometry">
            <Array as="points">
              <mxPoint x="1540" y="1070" />
              <mxPoint x="1540" y="1070" />
            </Array>
          </mxGeometry>
        </mxCell>
        <mxCell id="lDUNnZKXfMlLJSPLOupV-31" value="" style="rounded=0;whiteSpace=wrap;html=1;" parent="1" vertex="1">
          <mxGeometry x="839" y="840" width="80" height="730" as="geometry" />
        </mxCell>
        <mxCell id="lDUNnZKXfMlLJSPLOupV-32" value="WB" style="edgeStyle=orthogonalEdgeStyle;rounded=0;orthogonalLoop=1;jettySize=auto;html=1;exitX=1;exitY=0.5;exitDx=0;exitDy=0;entryX=-0.025;entryY=0.057;entryDx=0;entryDy=0;entryPerimeter=0;" parent="1" source="lDUNnZKXfMlLJSPLOupV-30" target="lDUNnZKXfMlLJSPLOupV-31" edge="1">
          <mxGeometry relative="1" as="geometry" />
        </mxCell>
        <mxCell id="lDUNnZKXfMlLJSPLOupV-33" value="EX" style="edgeStyle=orthogonalEdgeStyle;rounded=0;orthogonalLoop=1;jettySize=auto;html=1;exitX=1;exitY=0.5;exitDx=0;exitDy=0;entryX=-0.062;entryY=0.237;entryDx=0;entryDy=0;entryPerimeter=0;" parent="1" source="lDUNnZKXfMlLJSPLOupV-30" target="lDUNnZKXfMlLJSPLOupV-31" edge="1">
          <mxGeometry relative="1" as="geometry" />
        </mxCell>
        <mxCell id="lDUNnZKXfMlLJSPLOupV-34" value="M" style="edgeStyle=orthogonalEdgeStyle;rounded=0;orthogonalLoop=1;jettySize=auto;html=1;exitX=1;exitY=0.5;exitDx=0;exitDy=0;entryX=-0.025;entryY=0.147;entryDx=0;entryDy=0;entryPerimeter=0;" parent="1" source="lDUNnZKXfMlLJSPLOupV-30" target="lDUNnZKXfMlLJSPLOupV-31" edge="1">
          <mxGeometry relative="1" as="geometry" />
        </mxCell>
        <mxCell id="lDUNnZKXfMlLJSPLOupV-36" value="Read Data1" style="edgeStyle=orthogonalEdgeStyle;rounded=0;orthogonalLoop=1;jettySize=auto;html=1;exitX=1;exitY=0.25;exitDx=0;exitDy=0;entryX=0.013;entryY=0.676;entryDx=0;entryDy=0;entryPerimeter=0;" parent="1" source="lDUNnZKXfMlLJSPLOupV-27" target="lDUNnZKXfMlLJSPLOupV-31" edge="1">
          <mxGeometry relative="1" as="geometry" />
        </mxCell>
        <mxCell id="lDUNnZKXfMlLJSPLOupV-37" value="Read Data2" style="edgeStyle=orthogonalEdgeStyle;rounded=0;orthogonalLoop=1;jettySize=auto;html=1;exitX=1;exitY=0.5;exitDx=0;exitDy=0;entryX=0;entryY=0.75;entryDx=0;entryDy=0;" parent="1" source="lDUNnZKXfMlLJSPLOupV-27" target="lDUNnZKXfMlLJSPLOupV-31" edge="1">
          <mxGeometry relative="1" as="geometry" />
        </mxCell>
        <mxCell id="lDUNnZKXfMlLJSPLOupV-54" value="ALU_OUTPUT" style="edgeStyle=orthogonalEdgeStyle;rounded=0;orthogonalLoop=1;jettySize=auto;html=1;exitX=1;exitY=0.5;exitDx=0;exitDy=0;entryX=0;entryY=0.5;entryDx=0;entryDy=0;" parent="1" source="lDUNnZKXfMlLJSPLOupV-39" target="lDUNnZKXfMlLJSPLOupV-50" edge="1">
          <mxGeometry relative="1" as="geometry" />
        </mxCell>
        <mxCell id="lDUNnZKXfMlLJSPLOupV-39" value="ALU" style="shape=step;perimeter=stepPerimeter;whiteSpace=wrap;html=1;fixedSize=1;" parent="1" vertex="1">
          <mxGeometry x="1290" y="1120" width="160" height="120" as="geometry" />
        </mxCell>
        <mxCell id="lDUNnZKXfMlLJSPLOupV-40" value="" style="edgeStyle=orthogonalEdgeStyle;rounded=0;orthogonalLoop=1;jettySize=auto;html=1;exitX=1.004;exitY=0.68;exitDx=0;exitDy=0;exitPerimeter=0;entryX=0;entryY=0.5;entryDx=0;entryDy=0;" parent="1" source="lDUNnZKXfMlLJSPLOupV-31" target="koZzIr1g32_VItgDSHb--8" edge="1">
          <mxGeometry x="0.5682" y="4" relative="1" as="geometry">
            <mxPoint x="1020" y="1150" as="targetPoint" />
            <Array as="points">
              <mxPoint x="919" y="1300" />
              <mxPoint x="940" y="1300" />
              <mxPoint x="940" y="1149" />
              <mxPoint x="1070" y="1149" />
            </Array>
            <mxPoint as="offset" />
          </mxGeometry>
        </mxCell>
        <mxCell id="lDUNnZKXfMlLJSPLOupV-43" value="Read Data1" style="edgeLabel;html=1;align=center;verticalAlign=middle;resizable=0;points=[];" parent="lDUNnZKXfMlLJSPLOupV-40" vertex="1" connectable="0">
          <mxGeometry x="0.5564" y="-2" relative="1" as="geometry">
            <mxPoint as="offset" />
          </mxGeometry>
        </mxCell>
        <mxCell id="lDUNnZKXfMlLJSPLOupV-45" value="MUX" style="ellipse;whiteSpace=wrap;html=1;aspect=fixed;" parent="1" vertex="1">
          <mxGeometry x="1180" y="1280" width="73" height="73" as="geometry" />
        </mxCell>
        <mxCell id="lDUNnZKXfMlLJSPLOupV-72" value="MemWrite" style="edgeStyle=orthogonalEdgeStyle;rounded=0;orthogonalLoop=1;jettySize=auto;html=1;entryX=0.5;entryY=0;entryDx=0;entryDy=0;exitX=1.03;exitY=0.088;exitDx=0;exitDy=0;exitPerimeter=0;" parent="1" source="lDUNnZKXfMlLJSPLOupV-50" target="lDUNnZKXfMlLJSPLOupV-67" edge="1">
          <mxGeometry relative="1" as="geometry">
            <mxPoint x="1640" y="900" as="sourcePoint" />
            <Array as="points">
              <mxPoint x="2080" y="900" />
              <mxPoint x="2080" y="1140" />
              <mxPoint x="1960" y="1140" />
            </Array>
          </mxGeometry>
        </mxCell>
        <mxCell id="lDUNnZKXfMlLJSPLOupV-73" value="MemRead" style="edgeStyle=orthogonalEdgeStyle;rounded=0;orthogonalLoop=1;jettySize=auto;html=1;exitX=1.013;exitY=0.088;exitDx=0;exitDy=0;entryX=0.5;entryY=1;entryDx=0;entryDy=0;exitPerimeter=0;" parent="1" source="lDUNnZKXfMlLJSPLOupV-50" target="lDUNnZKXfMlLJSPLOupV-67" edge="1">
          <mxGeometry x="0.7712" relative="1" as="geometry">
            <Array as="points">
              <mxPoint x="1641" y="890" />
              <mxPoint x="2120" y="890" />
              <mxPoint x="2120" y="1540" />
              <mxPoint x="1960" y="1540" />
            </Array>
            <mxPoint as="offset" />
          </mxGeometry>
        </mxCell>
        <mxCell id="lDUNnZKXfMlLJSPLOupV-131" value="PUSH" style="edgeStyle=orthogonalEdgeStyle;rounded=0;orthogonalLoop=1;jettySize=auto;html=1;exitX=1.044;exitY=0.044;exitDx=0;exitDy=0;entryX=0;entryY=0.5;entryDx=0;entryDy=0;exitPerimeter=0;" parent="1" source="lDUNnZKXfMlLJSPLOupV-50" target="lDUNnZKXfMlLJSPLOupV-125" edge="1">
          <mxGeometry relative="1" as="geometry">
            <Array as="points">
              <mxPoint x="1850" y="870" />
              <mxPoint x="1850" y="990" />
            </Array>
          </mxGeometry>
        </mxCell>
        <mxCell id="lDUNnZKXfMlLJSPLOupV-132" value="POP" style="edgeStyle=orthogonalEdgeStyle;rounded=0;orthogonalLoop=1;jettySize=auto;html=1;exitX=1.044;exitY=0.031;exitDx=0;exitDy=0;entryX=0;entryY=0.75;entryDx=0;entryDy=0;exitPerimeter=0;" parent="1" source="lDUNnZKXfMlLJSPLOupV-50" target="lDUNnZKXfMlLJSPLOupV-125" edge="1">
          <mxGeometry x="-0.2626" y="1" relative="1" as="geometry">
            <Array as="points">
              <mxPoint x="1830" y="861" />
              <mxPoint x="1830" y="1004" />
            </Array>
            <mxPoint as="offset" />
          </mxGeometry>
        </mxCell>
        <mxCell id="lDUNnZKXfMlLJSPLOupV-133" style="edgeStyle=orthogonalEdgeStyle;rounded=0;orthogonalLoop=1;jettySize=auto;html=1;entryX=0.175;entryY=0.75;entryDx=0;entryDy=0;entryPerimeter=0;" parent="1" target="a2ysGBZpHkb-Z4tsZmfe-1" edge="1">
          <mxGeometry relative="1" as="geometry">
            <mxPoint x="1640" y="870" as="sourcePoint" />
          </mxGeometry>
        </mxCell>
        <mxCell id="pzNhr9gsS4aFCZHYoq7B-14" value="CALL_SIG" style="edgeStyle=orthogonalEdgeStyle;rounded=0;orthogonalLoop=1;jettySize=auto;html=1;exitX=1;exitY=0;exitDx=0;exitDy=0;entryX=0;entryY=0;entryDx=0;entryDy=0;" edge="1" parent="1" source="lDUNnZKXfMlLJSPLOupV-50" target="lDUNnZKXfMlLJSPLOupV-125">
          <mxGeometry x="0.2454" y="-10" relative="1" as="geometry">
            <Array as="points">
              <mxPoint x="1640" y="820" />
              <mxPoint x="1880" y="820" />
              <mxPoint x="1880" y="969" />
            </Array>
            <mxPoint as="offset" />
          </mxGeometry>
        </mxCell>
        <mxCell id="pzNhr9gsS4aFCZHYoq7B-28" value="INT" style="edgeStyle=orthogonalEdgeStyle;rounded=0;orthogonalLoop=1;jettySize=auto;html=1;exitX=1;exitY=0;exitDx=0;exitDy=0;entryX=0.917;entryY=-0.002;entryDx=0;entryDy=0;entryPerimeter=0;" edge="1" parent="1" source="lDUNnZKXfMlLJSPLOupV-50" target="lDUNnZKXfMlLJSPLOupV-67">
          <mxGeometry x="-0.3333" relative="1" as="geometry">
            <mxPoint x="2058" y="1230" as="targetPoint" />
            <Array as="points">
              <mxPoint x="1640" y="790" />
              <mxPoint x="2060" y="790" />
              <mxPoint x="2060" y="1220" />
              <mxPoint x="2060" y="1220" />
            </Array>
            <mxPoint as="offset" />
          </mxGeometry>
        </mxCell>
        <mxCell id="lDUNnZKXfMlLJSPLOupV-50" value="" style="rounded=0;whiteSpace=wrap;html=1;" parent="1" vertex="1">
          <mxGeometry x="1560" y="840" width="80" height="680" as="geometry" />
        </mxCell>
        <mxCell id="lDUNnZKXfMlLJSPLOupV-52" value="CCR" style="rounded=0;whiteSpace=wrap;html=1;" parent="1" vertex="1">
          <mxGeometry x="1253" y="1360" width="160" height="80" as="geometry" />
        </mxCell>
        <mxCell id="lDUNnZKXfMlLJSPLOupV-55" value="Z" style="edgeStyle=orthogonalEdgeStyle;rounded=0;orthogonalLoop=1;jettySize=auto;html=1;exitX=0.5;exitY=1;exitDx=0;exitDy=0;entryX=0.127;entryY=-0.004;entryDx=0;entryDy=0;entryPerimeter=0;" parent="1" source="lDUNnZKXfMlLJSPLOupV-39" target="lDUNnZKXfMlLJSPLOupV-52" edge="1">
          <mxGeometry x="0.6684" relative="1" as="geometry">
            <mxPoint as="offset" />
          </mxGeometry>
        </mxCell>
        <mxCell id="lDUNnZKXfMlLJSPLOupV-56" value="N" style="edgeStyle=orthogonalEdgeStyle;rounded=0;orthogonalLoop=1;jettySize=auto;html=1;exitX=0.5;exitY=1;exitDx=0;exitDy=0;entryX=0.369;entryY=0.007;entryDx=0;entryDy=0;entryPerimeter=0;" parent="1" source="lDUNnZKXfMlLJSPLOupV-39" target="lDUNnZKXfMlLJSPLOupV-52" edge="1">
          <mxGeometry x="0.5697" y="1" relative="1" as="geometry">
            <mxPoint as="offset" />
          </mxGeometry>
        </mxCell>
        <mxCell id="lDUNnZKXfMlLJSPLOupV-58" value="C" style="edgeStyle=orthogonalEdgeStyle;rounded=0;orthogonalLoop=1;jettySize=auto;html=1;exitX=0.5;exitY=1;exitDx=0;exitDy=0;entryX=0.631;entryY=0.03;entryDx=0;entryDy=0;entryPerimeter=0;" parent="1" source="lDUNnZKXfMlLJSPLOupV-39" target="lDUNnZKXfMlLJSPLOupV-52" edge="1">
          <mxGeometry x="0.5547" relative="1" as="geometry">
            <mxPoint as="offset" />
          </mxGeometry>
        </mxCell>
        <mxCell id="lDUNnZKXfMlLJSPLOupV-59" value="O" style="edgeStyle=orthogonalEdgeStyle;rounded=0;orthogonalLoop=1;jettySize=auto;html=1;exitX=0.5;exitY=1;exitDx=0;exitDy=0;" parent="1" source="lDUNnZKXfMlLJSPLOupV-39" edge="1">
          <mxGeometry x="0.6676" relative="1" as="geometry">
            <mxPoint x="1380" y="1360" as="targetPoint" />
            <mxPoint as="offset" />
          </mxGeometry>
        </mxCell>
        <mxCell id="lDUNnZKXfMlLJSPLOupV-60" style="edgeStyle=orthogonalEdgeStyle;rounded=0;orthogonalLoop=1;jettySize=auto;html=1;exitX=1;exitY=0.5;exitDx=0;exitDy=0;entryX=0.001;entryY=0.823;entryDx=0;entryDy=0;entryPerimeter=0;" parent="1" source="lDUNnZKXfMlLJSPLOupV-52" target="lDUNnZKXfMlLJSPLOupV-50" edge="1">
          <mxGeometry relative="1" as="geometry" />
        </mxCell>
        <mxCell id="lDUNnZKXfMlLJSPLOupV-64" value="WB" style="endArrow=classic;html=1;rounded=0;exitX=1.013;exitY=0.059;exitDx=0;exitDy=0;exitPerimeter=0;" parent="1" source="lDUNnZKXfMlLJSPLOupV-31" edge="1">
          <mxGeometry width="50" height="50" relative="1" as="geometry">
            <mxPoint x="1180" y="930" as="sourcePoint" />
            <mxPoint x="1560" y="880" as="targetPoint" />
          </mxGeometry>
        </mxCell>
        <mxCell id="lDUNnZKXfMlLJSPLOupV-65" value="M" style="endArrow=classic;html=1;rounded=0;exitX=1.013;exitY=0.059;exitDx=0;exitDy=0;exitPerimeter=0;" parent="1" edge="1">
          <mxGeometry width="50" height="50" relative="1" as="geometry">
            <mxPoint x="920" y="900" as="sourcePoint" />
            <mxPoint x="1560" y="900" as="targetPoint" />
          </mxGeometry>
        </mxCell>
        <mxCell id="pzNhr9gsS4aFCZHYoq7B-5" value="RET_PC OR RTI_PC" style="edgeStyle=orthogonalEdgeStyle;rounded=0;orthogonalLoop=1;jettySize=auto;html=1;exitX=1;exitY=0.5;exitDx=0;exitDy=0;entryX=0;entryY=1;entryDx=0;entryDy=0;" edge="1" parent="1" source="lDUNnZKXfMlLJSPLOupV-67" target="pzNhr9gsS4aFCZHYoq7B-3">
          <mxGeometry x="0.0003" relative="1" as="geometry">
            <Array as="points">
              <mxPoint x="2100" y="1360" />
              <mxPoint x="2100" y="2050" />
              <mxPoint x="-567" y="2050" />
            </Array>
            <mxPoint as="offset" />
          </mxGeometry>
        </mxCell>
        <mxCell id="pzNhr9gsS4aFCZHYoq7B-29" style="edgeStyle=orthogonalEdgeStyle;rounded=0;orthogonalLoop=1;jettySize=auto;html=1;exitX=1;exitY=0.75;exitDx=0;exitDy=0;entryX=0.25;entryY=1;entryDx=0;entryDy=0;" edge="1" parent="1" source="lDUNnZKXfMlLJSPLOupV-67" target="lDUNnZKXfMlLJSPLOupV-52">
          <mxGeometry relative="1" as="geometry">
            <Array as="points">
              <mxPoint x="2110" y="1420" />
              <mxPoint x="2110" y="1580" />
              <mxPoint x="1293" y="1580" />
            </Array>
          </mxGeometry>
        </mxCell>
        <mxCell id="lDUNnZKXfMlLJSPLOupV-67" value="MEMORY" style="whiteSpace=wrap;html=1;aspect=fixed;" parent="1" vertex="1">
          <mxGeometry x="1840" y="1240" width="240" height="240" as="geometry" />
        </mxCell>
        <mxCell id="lDUNnZKXfMlLJSPLOupV-68" value="Address" style="edgeStyle=orthogonalEdgeStyle;rounded=0;orthogonalLoop=1;jettySize=auto;html=1;exitX=1;exitY=0.5;exitDx=0;exitDy=0;" parent="1" source="lDUNnZKXfMlLJSPLOupV-50" edge="1">
          <mxGeometry relative="1" as="geometry">
            <mxPoint x="1740" y="1250" as="targetPoint" />
          </mxGeometry>
        </mxCell>
        <mxCell id="lDUNnZKXfMlLJSPLOupV-69" value="Write Data" style="edgeStyle=orthogonalEdgeStyle;rounded=0;orthogonalLoop=1;jettySize=auto;html=1;exitX=1;exitY=0.75;exitDx=0;exitDy=0;entryX=0.05;entryY=0.296;entryDx=0;entryDy=0;entryPerimeter=0;" parent="1" source="lDUNnZKXfMlLJSPLOupV-50" target="pzNhr9gsS4aFCZHYoq7B-6" edge="1">
          <mxGeometry relative="1" as="geometry" />
        </mxCell>
        <mxCell id="lDUNnZKXfMlLJSPLOupV-78" style="edgeStyle=orthogonalEdgeStyle;rounded=0;orthogonalLoop=1;jettySize=auto;html=1;exitX=1;exitY=0.75;exitDx=0;exitDy=0;entryX=0;entryY=0;entryDx=0;entryDy=0;" parent="1" source="lDUNnZKXfMlLJSPLOupV-75" target="lDUNnZKXfMlLJSPLOupV-77" edge="1">
          <mxGeometry relative="1" as="geometry">
            <Array as="points">
              <mxPoint x="2320" y="1350" />
              <mxPoint x="2320" y="1283" />
            </Array>
          </mxGeometry>
        </mxCell>
        <mxCell id="lDUNnZKXfMlLJSPLOupV-80" style="edgeStyle=orthogonalEdgeStyle;rounded=0;orthogonalLoop=1;jettySize=auto;html=1;exitX=1.007;exitY=0.824;exitDx=0;exitDy=0;entryX=0;entryY=1;entryDx=0;entryDy=0;exitPerimeter=0;" parent="1" source="lDUNnZKXfMlLJSPLOupV-75" target="lDUNnZKXfMlLJSPLOupV-77" edge="1">
          <mxGeometry relative="1" as="geometry" />
        </mxCell>
        <mxCell id="lDUNnZKXfMlLJSPLOupV-82" value="MEMTOREG" style="edgeStyle=orthogonalEdgeStyle;rounded=0;orthogonalLoop=1;jettySize=auto;html=1;exitX=1.004;exitY=0.06;exitDx=0;exitDy=0;entryX=0.5;entryY=0;entryDx=0;entryDy=0;exitPerimeter=0;" parent="1" source="lDUNnZKXfMlLJSPLOupV-75" target="lDUNnZKXfMlLJSPLOupV-77" edge="1">
          <mxGeometry relative="1" as="geometry">
            <Array as="points">
              <mxPoint x="2440" y="881" />
              <mxPoint x="2440" y="1260" />
              <mxPoint x="2445" y="1260" />
            </Array>
          </mxGeometry>
        </mxCell>
        <mxCell id="lDUNnZKXfMlLJSPLOupV-102" value="REGWRITE" style="edgeStyle=orthogonalEdgeStyle;rounded=0;orthogonalLoop=1;jettySize=auto;html=1;exitX=1.042;exitY=0.035;exitDx=0;exitDy=0;entryX=0.5;entryY=0;entryDx=0;entryDy=0;exitPerimeter=0;" parent="1" source="lDUNnZKXfMlLJSPLOupV-75" target="lDUNnZKXfMlLJSPLOupV-27" edge="1">
          <mxGeometry relative="1" as="geometry">
            <Array as="points">
              <mxPoint x="2320" y="864" />
              <mxPoint x="2320" y="800" />
              <mxPoint x="440" y="800" />
              <mxPoint x="440" y="1160" />
              <mxPoint x="601" y="1160" />
            </Array>
          </mxGeometry>
        </mxCell>
        <mxCell id="lDUNnZKXfMlLJSPLOupV-109" style="edgeStyle=orthogonalEdgeStyle;rounded=0;orthogonalLoop=1;jettySize=auto;html=1;exitX=1.021;exitY=0.97;exitDx=0;exitDy=0;exitPerimeter=0;entryX=0;entryY=1;entryDx=0;entryDy=0;" parent="1" source="lDUNnZKXfMlLJSPLOupV-75" target="lDUNnZKXfMlLJSPLOupV-110" edge="1">
          <mxGeometry relative="1" as="geometry">
            <mxPoint x="2400" y="1490" as="targetPoint" />
          </mxGeometry>
        </mxCell>
        <mxCell id="lDUNnZKXfMlLJSPLOupV-112" value="IN_SIG" style="edgeStyle=orthogonalEdgeStyle;rounded=0;orthogonalLoop=1;jettySize=auto;html=1;exitX=0.994;exitY=0.045;exitDx=0;exitDy=0;entryX=0.5;entryY=0;entryDx=0;entryDy=0;exitPerimeter=0;" parent="1" source="lDUNnZKXfMlLJSPLOupV-75" target="lDUNnZKXfMlLJSPLOupV-110" edge="1">
          <mxGeometry relative="1" as="geometry">
            <Array as="points">
              <mxPoint x="2560" y="871" />
              <mxPoint x="2560" y="1440" />
              <mxPoint x="2440" y="1440" />
            </Array>
          </mxGeometry>
        </mxCell>
        <mxCell id="lDUNnZKXfMlLJSPLOupV-75" value="" style="rounded=0;whiteSpace=wrap;html=1;" parent="1" vertex="1">
          <mxGeometry x="2200" y="840" width="80" height="680" as="geometry" />
        </mxCell>
        <mxCell id="lDUNnZKXfMlLJSPLOupV-76" style="edgeStyle=orthogonalEdgeStyle;rounded=0;orthogonalLoop=1;jettySize=auto;html=1;exitX=1;exitY=0.5;exitDx=0;exitDy=0;entryX=0.025;entryY=0.765;entryDx=0;entryDy=0;entryPerimeter=0;" parent="1" source="lDUNnZKXfMlLJSPLOupV-67" target="lDUNnZKXfMlLJSPLOupV-75" edge="1">
          <mxGeometry relative="1" as="geometry" />
        </mxCell>
        <mxCell id="lDUNnZKXfMlLJSPLOupV-83" value="Write Data" style="edgeStyle=orthogonalEdgeStyle;rounded=0;orthogonalLoop=1;jettySize=auto;html=1;exitX=1;exitY=0.5;exitDx=0;exitDy=0;entryX=0;entryY=0.75;entryDx=0;entryDy=0;" parent="1" source="lDUNnZKXfMlLJSPLOupV-110" target="lDUNnZKXfMlLJSPLOupV-27" edge="1">
          <mxGeometry relative="1" as="geometry">
            <Array as="points">
              <mxPoint x="2510" y="1520" />
              <mxPoint x="2510" y="1710" />
              <mxPoint x="461" y="1710" />
              <mxPoint x="461" y="1420" />
            </Array>
          </mxGeometry>
        </mxCell>
        <mxCell id="lDUNnZKXfMlLJSPLOupV-111" style="edgeStyle=orthogonalEdgeStyle;rounded=0;orthogonalLoop=1;jettySize=auto;html=1;exitX=1;exitY=0.5;exitDx=0;exitDy=0;entryX=0;entryY=0;entryDx=0;entryDy=0;" parent="1" source="lDUNnZKXfMlLJSPLOupV-77" target="lDUNnZKXfMlLJSPLOupV-110" edge="1">
          <mxGeometry relative="1" as="geometry">
            <Array as="points">
              <mxPoint x="2510" y="1315" />
              <mxPoint x="2510" y="1420" />
              <mxPoint x="2370" y="1420" />
              <mxPoint x="2370" y="1488" />
            </Array>
          </mxGeometry>
        </mxCell>
        <mxCell id="lDUNnZKXfMlLJSPLOupV-77" value="MUX" style="ellipse;whiteSpace=wrap;html=1;aspect=fixed;" parent="1" vertex="1">
          <mxGeometry x="2400" y="1270" width="90" height="90" as="geometry" />
        </mxCell>
        <mxCell id="lDUNnZKXfMlLJSPLOupV-79" value="ALU_OUTPUT" style="edgeStyle=orthogonalEdgeStyle;rounded=0;orthogonalLoop=1;jettySize=auto;html=1;exitX=1;exitY=0.5;exitDx=0;exitDy=0;entryX=0;entryY=0.824;entryDx=0;entryDy=0;entryPerimeter=0;" parent="1" source="lDUNnZKXfMlLJSPLOupV-50" target="lDUNnZKXfMlLJSPLOupV-75" edge="1">
          <mxGeometry relative="1" as="geometry">
            <Array as="points">
              <mxPoint x="2160" y="1180" />
              <mxPoint x="2160" y="1400" />
              <mxPoint x="2200" y="1400" />
            </Array>
          </mxGeometry>
        </mxCell>
        <mxCell id="lDUNnZKXfMlLJSPLOupV-81" value="WB" style="edgeStyle=orthogonalEdgeStyle;rounded=0;orthogonalLoop=1;jettySize=auto;html=1;exitX=0.983;exitY=0.058;exitDx=0;exitDy=0;exitPerimeter=0;entryX=-0.035;entryY=0.058;entryDx=0;entryDy=0;entryPerimeter=0;" parent="1" source="lDUNnZKXfMlLJSPLOupV-50" target="lDUNnZKXfMlLJSPLOupV-75" edge="1">
          <mxGeometry relative="1" as="geometry">
            <mxPoint x="2190" y="880" as="targetPoint" />
            <Array as="points" />
          </mxGeometry>
        </mxCell>
        <mxCell id="lDUNnZKXfMlLJSPLOupV-84" style="edgeStyle=orthogonalEdgeStyle;rounded=0;orthogonalLoop=1;jettySize=auto;html=1;exitX=1;exitY=0.982;exitDx=0;exitDy=0;entryX=-0.056;entryY=0.982;entryDx=0;entryDy=0;entryPerimeter=0;exitPerimeter=0;" parent="1" source="lDUNnZKXfMlLJSPLOupV-5" target="lDUNnZKXfMlLJSPLOupV-31" edge="1">
          <mxGeometry relative="1" as="geometry" />
        </mxCell>
        <mxCell id="lDUNnZKXfMlLJSPLOupV-85" style="edgeStyle=orthogonalEdgeStyle;rounded=0;orthogonalLoop=1;jettySize=auto;html=1;entryX=0.015;entryY=0.986;entryDx=0;entryDy=0;entryPerimeter=0;" parent="1" target="lDUNnZKXfMlLJSPLOupV-50" edge="1">
          <mxGeometry relative="1" as="geometry">
            <mxPoint x="919" y="1510" as="sourcePoint" />
            <Array as="points">
              <mxPoint x="919" y="1510" />
              <mxPoint x="1240" y="1510" />
            </Array>
          </mxGeometry>
        </mxCell>
        <mxCell id="lDUNnZKXfMlLJSPLOupV-86" style="edgeStyle=orthogonalEdgeStyle;rounded=0;orthogonalLoop=1;jettySize=auto;html=1;exitX=1;exitY=0.985;exitDx=0;exitDy=0;entryX=0;entryY=0.982;entryDx=0;entryDy=0;entryPerimeter=0;exitPerimeter=0;" parent="1" source="lDUNnZKXfMlLJSPLOupV-50" target="lDUNnZKXfMlLJSPLOupV-75" edge="1">
          <mxGeometry relative="1" as="geometry">
            <Array as="points">
              <mxPoint x="2190" y="1510" />
              <mxPoint x="2190" y="1508" />
            </Array>
          </mxGeometry>
        </mxCell>
        <mxCell id="lDUNnZKXfMlLJSPLOupV-87" value="Write Address" style="edgeStyle=orthogonalEdgeStyle;rounded=0;orthogonalLoop=1;jettySize=auto;html=1;exitX=0.99;exitY=0.984;exitDx=0;exitDy=0;entryX=-0.004;entryY=0.663;entryDx=0;entryDy=0;entryPerimeter=0;exitPerimeter=0;" parent="1" source="lDUNnZKXfMlLJSPLOupV-75" target="lDUNnZKXfMlLJSPLOupV-27" edge="1">
          <mxGeometry relative="1" as="geometry">
            <Array as="points">
              <mxPoint x="2279" y="1507" />
              <mxPoint x="2290" y="1507" />
              <mxPoint x="2290" y="1690" />
              <mxPoint x="440" y="1690" />
              <mxPoint x="440" y="1399" />
            </Array>
          </mxGeometry>
        </mxCell>
        <mxCell id="lDUNnZKXfMlLJSPLOupV-90" value="MUX" style="ellipse;whiteSpace=wrap;html=1;aspect=fixed;" parent="1" vertex="1">
          <mxGeometry x="79" y="1110" width="90" height="90" as="geometry" />
        </mxCell>
        <mxCell id="lDUNnZKXfMlLJSPLOupV-92" value="SWAP_INST" style="edgeStyle=orthogonalEdgeStyle;rounded=0;orthogonalLoop=1;jettySize=auto;html=1;entryX=-0.007;entryY=0.284;entryDx=0;entryDy=0;entryPerimeter=0;exitX=0.559;exitY=0.001;exitDx=0;exitDy=0;exitPerimeter=0;" parent="1" source="lDUNnZKXfMlLJSPLOupV-30" target="lDUNnZKXfMlLJSPLOupV-90" edge="1">
          <mxGeometry relative="1" as="geometry">
            <mxPoint x="920" y="920" as="sourcePoint" />
            <Array as="points">
              <mxPoint x="614" y="760" />
              <mxPoint x="59" y="760" />
              <mxPoint x="59" y="1136" />
            </Array>
          </mxGeometry>
        </mxCell>
        <mxCell id="lDUNnZKXfMlLJSPLOupV-95" value="INSTRUCTION" style="edgeStyle=orthogonalEdgeStyle;rounded=0;orthogonalLoop=1;jettySize=auto;html=1;exitX=1;exitY=0.5;exitDx=0;exitDy=0;entryX=0.019;entryY=0.708;entryDx=0;entryDy=0;entryPerimeter=0;" parent="1" source="lDUNnZKXfMlLJSPLOupV-90" target="lDUNnZKXfMlLJSPLOupV-5" edge="1">
          <mxGeometry relative="1" as="geometry">
            <Array as="points">
              <mxPoint x="182" y="1155" />
              <mxPoint x="182" y="1357" />
            </Array>
          </mxGeometry>
        </mxCell>
        <mxCell id="lDUNnZKXfMlLJSPLOupV-101" value="CALL" style="edgeStyle=orthogonalEdgeStyle;rounded=0;orthogonalLoop=1;jettySize=auto;html=1;exitX=1;exitY=0.5;exitDx=0;exitDy=0;exitPerimeter=0;" parent="1" source="lDUNnZKXfMlLJSPLOupV-96" edge="1">
          <mxGeometry relative="1" as="geometry">
            <Array as="points">
              <mxPoint x="1740" y="620" />
              <mxPoint x="1780" y="620" />
              <mxPoint x="1780" y="438" />
              <mxPoint x="900" y="438" />
              <mxPoint x="900" y="470" />
            </Array>
            <mxPoint x="1760" y="1060" as="sourcePoint" />
            <mxPoint x="860" y="470" as="targetPoint" />
          </mxGeometry>
        </mxCell>
        <mxCell id="lDUNnZKXfMlLJSPLOupV-96" value="BRANCH" style="shape=or;whiteSpace=wrap;html=1;" parent="1" vertex="1">
          <mxGeometry x="1680" y="1000" width="60" height="80" as="geometry" />
        </mxCell>
        <mxCell id="lDUNnZKXfMlLJSPLOupV-97" style="edgeStyle=orthogonalEdgeStyle;rounded=0;orthogonalLoop=1;jettySize=auto;html=1;exitX=1.027;exitY=0.101;exitDx=0;exitDy=0;entryX=0;entryY=0.25;entryDx=0;entryDy=0;entryPerimeter=0;exitPerimeter=0;" parent="1" source="lDUNnZKXfMlLJSPLOupV-50" target="lDUNnZKXfMlLJSPLOupV-96" edge="1">
          <mxGeometry relative="1" as="geometry" />
        </mxCell>
        <mxCell id="lDUNnZKXfMlLJSPLOupV-98" style="edgeStyle=orthogonalEdgeStyle;rounded=0;orthogonalLoop=1;jettySize=auto;html=1;exitX=1.027;exitY=0.824;exitDx=0;exitDy=0;entryX=0;entryY=0.75;entryDx=0;entryDy=0;entryPerimeter=0;exitPerimeter=0;" parent="1" source="lDUNnZKXfMlLJSPLOupV-50" target="lDUNnZKXfMlLJSPLOupV-96" edge="1">
          <mxGeometry relative="1" as="geometry" />
        </mxCell>
        <mxCell id="lDUNnZKXfMlLJSPLOupV-103" value="IN PORT" style="rounded=0;whiteSpace=wrap;html=1;" parent="1" vertex="1">
          <mxGeometry x="-307" y="1573.75" width="120" height="60" as="geometry" />
        </mxCell>
        <mxCell id="lDUNnZKXfMlLJSPLOupV-104" style="edgeStyle=orthogonalEdgeStyle;rounded=0;orthogonalLoop=1;jettySize=auto;html=1;exitX=1;exitY=0.5;exitDx=0;exitDy=0;" parent="1" source="lDUNnZKXfMlLJSPLOupV-103" edge="1">
          <mxGeometry relative="1" as="geometry">
            <mxPoint x="200" y="1490" as="targetPoint" />
            <Array as="points">
              <mxPoint x="-120" y="1600" />
              <mxPoint x="-120" y="1490" />
            </Array>
          </mxGeometry>
        </mxCell>
        <mxCell id="lDUNnZKXfMlLJSPLOupV-106" style="edgeStyle=orthogonalEdgeStyle;rounded=0;orthogonalLoop=1;jettySize=auto;html=1;exitX=1.017;exitY=0.957;exitDx=0;exitDy=0;entryX=0.007;entryY=0.957;entryDx=0;entryDy=0;entryPerimeter=0;exitPerimeter=0;" parent="1" source="lDUNnZKXfMlLJSPLOupV-5" target="lDUNnZKXfMlLJSPLOupV-31" edge="1">
          <mxGeometry relative="1" as="geometry" />
        </mxCell>
        <mxCell id="lDUNnZKXfMlLJSPLOupV-107" style="edgeStyle=orthogonalEdgeStyle;rounded=0;orthogonalLoop=1;jettySize=auto;html=1;exitX=1.014;exitY=0.956;exitDx=0;exitDy=0;entryX=0.001;entryY=0.958;entryDx=0;entryDy=0;entryPerimeter=0;exitPerimeter=0;" parent="1" source="lDUNnZKXfMlLJSPLOupV-31" target="lDUNnZKXfMlLJSPLOupV-50" edge="1">
          <mxGeometry relative="1" as="geometry">
            <Array as="points">
              <mxPoint x="1550" y="1490" />
              <mxPoint x="1550" y="1491" />
            </Array>
          </mxGeometry>
        </mxCell>
        <mxCell id="lDUNnZKXfMlLJSPLOupV-108" style="edgeStyle=orthogonalEdgeStyle;rounded=0;orthogonalLoop=1;jettySize=auto;html=1;entryX=-0.006;entryY=0.969;entryDx=0;entryDy=0;entryPerimeter=0;" parent="1" target="lDUNnZKXfMlLJSPLOupV-75" edge="1">
          <mxGeometry relative="1" as="geometry">
            <mxPoint x="1640" y="1499" as="sourcePoint" />
            <Array as="points">
              <mxPoint x="1640" y="1499" />
            </Array>
          </mxGeometry>
        </mxCell>
        <mxCell id="lDUNnZKXfMlLJSPLOupV-110" value="MUX" style="ellipse;whiteSpace=wrap;html=1;aspect=fixed;" parent="1" vertex="1">
          <mxGeometry x="2395" y="1475" width="90" height="90" as="geometry" />
        </mxCell>
        <mxCell id="lDUNnZKXfMlLJSPLOupV-113" value="OUT.PORT" style="rounded=0;whiteSpace=wrap;html=1;" parent="1" vertex="1">
          <mxGeometry x="720" y="1880" width="120" height="60" as="geometry" />
        </mxCell>
        <mxCell id="lDUNnZKXfMlLJSPLOupV-119" style="edgeStyle=orthogonalEdgeStyle;rounded=0;orthogonalLoop=1;jettySize=auto;html=1;exitX=1;exitY=0.5;exitDx=0;exitDy=0;exitPerimeter=0;entryX=0.5;entryY=0;entryDx=0;entryDy=0;" parent="1" source="lDUNnZKXfMlLJSPLOupV-116" target="lDUNnZKXfMlLJSPLOupV-113" edge="1">
          <mxGeometry relative="1" as="geometry" />
        </mxCell>
        <mxCell id="lDUNnZKXfMlLJSPLOupV-116" value="" style="shape=or;whiteSpace=wrap;html=1;rotation=90;" parent="1" vertex="1">
          <mxGeometry x="761.25" y="1563.75" width="37.5" height="80" as="geometry" />
        </mxCell>
        <mxCell id="lDUNnZKXfMlLJSPLOupV-117" style="edgeStyle=orthogonalEdgeStyle;rounded=0;orthogonalLoop=1;jettySize=auto;html=1;exitX=1;exitY=0.25;exitDx=0;exitDy=0;entryX=0;entryY=0.75;entryDx=0;entryDy=0;entryPerimeter=0;" parent="1" source="lDUNnZKXfMlLJSPLOupV-27" target="lDUNnZKXfMlLJSPLOupV-116" edge="1">
          <mxGeometry relative="1" as="geometry" />
        </mxCell>
        <mxCell id="lDUNnZKXfMlLJSPLOupV-118" value="OUT _SIG" style="edgeStyle=orthogonalEdgeStyle;rounded=0;orthogonalLoop=1;jettySize=auto;html=1;exitX=1;exitY=0.5;exitDx=0;exitDy=0;entryX=0;entryY=0.25;entryDx=0;entryDy=0;entryPerimeter=0;" parent="1" source="lDUNnZKXfMlLJSPLOupV-30" target="lDUNnZKXfMlLJSPLOupV-116" edge="1">
          <mxGeometry relative="1" as="geometry">
            <Array as="points">
              <mxPoint x="720" y="1020" />
              <mxPoint x="800" y="1020" />
            </Array>
          </mxGeometry>
        </mxCell>
        <mxCell id="lDUNnZKXfMlLJSPLOupV-120" value="PC" style="edgeStyle=orthogonalEdgeStyle;rounded=0;orthogonalLoop=1;jettySize=auto;html=1;exitX=1.049;exitY=0.296;exitDx=0;exitDy=0;entryX=-0.032;entryY=0.337;entryDx=0;entryDy=0;entryPerimeter=0;exitPerimeter=0;" parent="1" source="lDUNnZKXfMlLJSPLOupV-5" target="lDUNnZKXfMlLJSPLOupV-31" edge="1">
          <mxGeometry relative="1" as="geometry">
            <Array as="points">
              <mxPoint x="320" y="1041" />
              <mxPoint x="320" y="1069" />
            </Array>
          </mxGeometry>
        </mxCell>
        <mxCell id="lDUNnZKXfMlLJSPLOupV-124" style="edgeStyle=orthogonalEdgeStyle;rounded=0;orthogonalLoop=1;jettySize=auto;html=1;exitX=1;exitY=0.5;exitDx=0;exitDy=0;" parent="1" source="lDUNnZKXfMlLJSPLOupV-123" edge="1">
          <mxGeometry relative="1" as="geometry">
            <mxPoint x="1980" y="1020" as="targetPoint" />
            <Array as="points">
              <mxPoint x="1980" y="1080" />
              <mxPoint x="1980" y="1020" />
            </Array>
          </mxGeometry>
        </mxCell>
        <mxCell id="lDUNnZKXfMlLJSPLOupV-129" style="edgeStyle=orthogonalEdgeStyle;rounded=0;orthogonalLoop=1;jettySize=auto;html=1;exitX=1;exitY=0.5;exitDx=0;exitDy=0;entryX=0;entryY=0;entryDx=0;entryDy=0;" parent="1" source="lDUNnZKXfMlLJSPLOupV-123" target="lDUNnZKXfMlLJSPLOupV-130" edge="1">
          <mxGeometry relative="1" as="geometry">
            <mxPoint x="1760" y="1200" as="targetPoint" />
            <Array as="points">
              <mxPoint x="1900" y="1080" />
              <mxPoint x="1900" y="1160" />
              <mxPoint x="1720" y="1160" />
              <mxPoint x="1720" y="1229" />
            </Array>
          </mxGeometry>
        </mxCell>
        <mxCell id="lDUNnZKXfMlLJSPLOupV-123" value="SP" style="whiteSpace=wrap;html=1;aspect=fixed;" parent="1" vertex="1">
          <mxGeometry x="1800" y="1040" width="80" height="80" as="geometry" />
        </mxCell>
        <mxCell id="lDUNnZKXfMlLJSPLOupV-128" style="edgeStyle=orthogonalEdgeStyle;rounded=0;orthogonalLoop=1;jettySize=auto;html=1;exitX=0.5;exitY=0;exitDx=0;exitDy=0;entryX=0;entryY=0.5;entryDx=0;entryDy=0;" parent="1" source="lDUNnZKXfMlLJSPLOupV-125" target="lDUNnZKXfMlLJSPLOupV-123" edge="1">
          <mxGeometry relative="1" as="geometry" />
        </mxCell>
        <mxCell id="lDUNnZKXfMlLJSPLOupV-125" value="INC/DEC" style="shape=trapezoid;perimeter=trapezoidPerimeter;whiteSpace=wrap;html=1;fixedSize=1;" parent="1" vertex="1">
          <mxGeometry x="1920" y="960" width="120" height="60" as="geometry" />
        </mxCell>
        <mxCell id="lDUNnZKXfMlLJSPLOupV-134" style="edgeStyle=orthogonalEdgeStyle;rounded=0;orthogonalLoop=1;jettySize=auto;html=1;exitX=0.5;exitY=1;exitDx=0;exitDy=0;entryX=0;entryY=0.25;entryDx=0;entryDy=0;" parent="1" source="lDUNnZKXfMlLJSPLOupV-130" target="lDUNnZKXfMlLJSPLOupV-67" edge="1">
          <mxGeometry relative="1" as="geometry" />
        </mxCell>
        <mxCell id="lDUNnZKXfMlLJSPLOupV-130" value="MUX" style="ellipse;whiteSpace=wrap;html=1;aspect=fixed;" parent="1" vertex="1">
          <mxGeometry x="1740" y="1220" width="60" height="60" as="geometry" />
        </mxCell>
        <mxCell id="a2ysGBZpHkb-Z4tsZmfe-1" value="" style="shape=xor;whiteSpace=wrap;html=1;rotation=90;" parent="1" vertex="1">
          <mxGeometry x="1743" y="1105" width="40" height="50" as="geometry" />
        </mxCell>
        <mxCell id="swfySK6Wa1C6kCUWWJmR-1" style="edgeStyle=orthogonalEdgeStyle;rounded=0;orthogonalLoop=1;jettySize=auto;html=1;exitX=1.003;exitY=0.031;exitDx=0;exitDy=0;entryX=0.2;entryY=0.331;entryDx=0;entryDy=0;entryPerimeter=0;exitPerimeter=0;" parent="1" source="lDUNnZKXfMlLJSPLOupV-50" target="a2ysGBZpHkb-Z4tsZmfe-1" edge="1">
          <mxGeometry relative="1" as="geometry">
            <Array as="points">
              <mxPoint x="1770" y="861" />
              <mxPoint x="1770" y="1110" />
              <mxPoint x="1772" y="1110" />
            </Array>
          </mxGeometry>
        </mxCell>
        <mxCell id="swfySK6Wa1C6kCUWWJmR-2" style="edgeStyle=orthogonalEdgeStyle;rounded=0;orthogonalLoop=1;jettySize=auto;html=1;exitX=1;exitY=0.5;exitDx=0;exitDy=0;exitPerimeter=0;entryX=0.394;entryY=-0.02;entryDx=0;entryDy=0;entryPerimeter=0;" parent="1" source="a2ysGBZpHkb-Z4tsZmfe-1" target="lDUNnZKXfMlLJSPLOupV-130" edge="1">
          <mxGeometry relative="1" as="geometry" />
        </mxCell>
        <mxCell id="swfySK6Wa1C6kCUWWJmR-11" value="&lt;br&gt;&lt;span style=&quot;color: rgb(0, 0, 0); font-family: Helvetica; font-size: 11px; font-style: normal; font-variant-ligatures: normal; font-variant-caps: normal; font-weight: 400; letter-spacing: normal; orphans: 2; text-align: center; text-indent: 0px; text-transform: none; widows: 2; word-spacing: 0px; -webkit-text-stroke-width: 0px; white-space: nowrap; background-color: rgb(255, 255, 255); text-decoration-thickness: initial; text-decoration-style: initial; text-decoration-color: initial; display: inline !important; float: none;&quot;&gt;BRANCH_SIG&lt;/span&gt;&lt;div&gt;&lt;br/&gt;&lt;/div&gt;" style="edgeStyle=orthogonalEdgeStyle;rounded=0;orthogonalLoop=1;jettySize=auto;html=1;" parent="1" edge="1">
          <mxGeometry relative="1" as="geometry">
            <mxPoint x="1639" y="850" as="sourcePoint" />
            <Array as="points">
              <mxPoint x="1639" y="850" />
              <mxPoint x="1709" y="850" />
              <mxPoint x="1709" y="480" />
            </Array>
            <mxPoint x="860" y="480" as="targetPoint" />
          </mxGeometry>
        </mxCell>
        <mxCell id="koZzIr1g32_VItgDSHb--6" value="&lt;div&gt;Branch Prediction Unit&lt;/div&gt;" style="ellipse;whiteSpace=wrap;html=1;" parent="1" vertex="1">
          <mxGeometry x="470" y="380" width="240" height="200" as="geometry" />
        </mxCell>
        <mxCell id="koZzIr1g32_VItgDSHb--7" value="&lt;div&gt;Forwarding unit&lt;/div&gt;" style="ellipse;whiteSpace=wrap;html=1;" parent="1" vertex="1">
          <mxGeometry x="1160" y="1840" width="240" height="200" as="geometry" />
        </mxCell>
        <mxCell id="koZzIr1g32_VItgDSHb--8" value="MUX" style="ellipse;whiteSpace=wrap;html=1;aspect=fixed;" parent="1" vertex="1">
          <mxGeometry x="1070" y="1117" width="73" height="73" as="geometry" />
        </mxCell>
        <mxCell id="koZzIr1g32_VItgDSHb--10" value="MUX" style="ellipse;whiteSpace=wrap;html=1;aspect=fixed;" parent="1" vertex="1">
          <mxGeometry x="1080" y="1213.5" width="73" height="73" as="geometry" />
        </mxCell>
        <mxCell id="koZzIr1g32_VItgDSHb--16" value="" style="edgeStyle=orthogonalEdgeStyle;rounded=0;orthogonalLoop=1;jettySize=auto;html=1;entryX=0.027;entryY=0.701;entryDx=0;entryDy=0;entryPerimeter=0;" parent="1" target="koZzIr1g32_VItgDSHb--10" edge="1">
          <mxGeometry x="0.5682" y="4" relative="1" as="geometry">
            <mxPoint x="1040" y="1263" as="targetPoint" />
            <Array as="points">
              <mxPoint x="951" y="1320" />
              <mxPoint x="951" y="1263" />
              <mxPoint x="1062" y="1263" />
            </Array>
            <mxPoint as="offset" />
            <mxPoint x="910" y="1320" as="sourcePoint" />
          </mxGeometry>
        </mxCell>
        <mxCell id="koZzIr1g32_VItgDSHb--17" value="Read Data 2" style="edgeLabel;html=1;align=center;verticalAlign=middle;resizable=0;points=[];" parent="koZzIr1g32_VItgDSHb--16" vertex="1" connectable="0">
          <mxGeometry x="0.5564" y="-2" relative="1" as="geometry">
            <mxPoint x="-4" y="-12" as="offset" />
          </mxGeometry>
        </mxCell>
        <mxCell id="koZzIr1g32_VItgDSHb--19" value="" style="endArrow=classic;html=1;rounded=0;" parent="1" edge="1">
          <mxGeometry width="50" height="50" relative="1" as="geometry">
            <mxPoint x="1143" y="1160" as="sourcePoint" />
            <mxPoint x="1300" y="1160" as="targetPoint" />
          </mxGeometry>
        </mxCell>
        <mxCell id="koZzIr1g32_VItgDSHb--21" value="" style="endArrow=classic;html=1;rounded=0;entryX=-0.029;entryY=0.936;entryDx=0;entryDy=0;entryPerimeter=0;" parent="1" target="lDUNnZKXfMlLJSPLOupV-31" edge="1">
          <mxGeometry width="50" height="50" relative="1" as="geometry">
            <mxPoint x="370" y="1360" as="sourcePoint" />
            <mxPoint x="360" y="1620" as="targetPoint" />
            <Array as="points">
              <mxPoint x="370" y="1523" />
            </Array>
          </mxGeometry>
        </mxCell>
        <mxCell id="koZzIr1g32_VItgDSHb--22" value="" style="endArrow=classic;html=1;rounded=0;entryX=-0.029;entryY=0.936;entryDx=0;entryDy=0;entryPerimeter=0;" parent="1" edge="1">
          <mxGeometry width="50" height="50" relative="1" as="geometry">
            <mxPoint x="400" y="1320" as="sourcePoint" />
            <mxPoint x="839.5" y="1494" as="targetPoint" />
            <Array as="points">
              <mxPoint x="400" y="1420" />
              <mxPoint x="400" y="1494" />
            </Array>
          </mxGeometry>
        </mxCell>
        <mxCell id="koZzIr1g32_VItgDSHb--23" value="" style="endArrow=classic;html=1;rounded=0;entryX=0.018;entryY=0.395;entryDx=0;entryDy=0;entryPerimeter=0;" parent="1" edge="1">
          <mxGeometry width="50" height="50" relative="1" as="geometry">
            <mxPoint x="919" y="1550" as="sourcePoint" />
            <mxPoint x="1163.3200000000006" y="1919.0000000000005" as="targetPoint" />
            <Array as="points">
              <mxPoint x="1079.04" y="1550" />
              <mxPoint x="1079" y="1660" />
              <mxPoint x="1079.04" y="1920" />
            </Array>
          </mxGeometry>
        </mxCell>
        <mxCell id="koZzIr1g32_VItgDSHb--24" value="" style="endArrow=classic;html=1;rounded=0;" parent="1" edge="1">
          <mxGeometry width="50" height="50" relative="1" as="geometry">
            <mxPoint x="919" y="1560.25" as="sourcePoint" />
            <mxPoint x="1150" y="1940.25" as="targetPoint" />
            <Array as="points">
              <mxPoint x="1019" y="1560" />
              <mxPoint x="1019" y="1940" />
            </Array>
          </mxGeometry>
        </mxCell>
        <mxCell id="koZzIr1g32_VItgDSHb--26" value="" style="endArrow=classic;html=1;rounded=0;exitX=0.5;exitY=1;exitDx=0;exitDy=0;entryX=0.997;entryY=0.41;entryDx=0;entryDy=0;entryPerimeter=0;" parent="1" source="lDUNnZKXfMlLJSPLOupV-50" target="koZzIr1g32_VItgDSHb--7" edge="1">
          <mxGeometry width="50" height="50" relative="1" as="geometry">
            <mxPoint x="1610" y="1540" as="sourcePoint" />
            <mxPoint x="1410" y="1920" as="targetPoint" />
            <Array as="points">
              <mxPoint x="1600" y="1920" />
            </Array>
          </mxGeometry>
        </mxCell>
        <mxCell id="koZzIr1g32_VItgDSHb--27" value="" style="endArrow=classic;html=1;rounded=0;entryX=1;entryY=0.615;entryDx=0;entryDy=0;entryPerimeter=0;" parent="1" edge="1">
          <mxGeometry width="50" height="50" relative="1" as="geometry">
            <mxPoint x="2100" y="1360" as="sourcePoint" />
            <mxPoint x="1400" y="1943" as="targetPoint" />
            <Array as="points">
              <mxPoint x="2100" y="1940" />
              <mxPoint x="1799" y="1943" />
              <mxPoint x="1540" y="1943" />
            </Array>
          </mxGeometry>
        </mxCell>
        <mxCell id="koZzIr1g32_VItgDSHb--30" value="" style="endArrow=classic;html=1;rounded=0;entryX=0.981;entryY=0.703;entryDx=0;entryDy=0;entryPerimeter=0;exitX=0.998;exitY=0.953;exitDx=0;exitDy=0;exitPerimeter=0;" parent="1" target="koZzIr1g32_VItgDSHb--7" edge="1" source="lDUNnZKXfMlLJSPLOupV-50">
          <mxGeometry width="50" height="50" relative="1" as="geometry">
            <mxPoint x="1900" y="1700" as="sourcePoint" />
            <mxPoint x="1410" y="1980" as="targetPoint" />
            <Array as="points">
              <mxPoint x="1900" y="1488" />
              <mxPoint x="1900" y="1981" />
              <mxPoint x="1730" y="1981" />
            </Array>
          </mxGeometry>
        </mxCell>
        <mxCell id="koZzIr1g32_VItgDSHb--31" value="" style="endArrow=classic;html=1;rounded=0;" parent="1" edge="1">
          <mxGeometry width="50" height="50" relative="1" as="geometry">
            <mxPoint x="1470" y="1180" as="sourcePoint" />
            <mxPoint x="1400" y="1902" as="targetPoint" />
            <Array as="points">
              <mxPoint x="1470" y="1902" />
            </Array>
          </mxGeometry>
        </mxCell>
        <mxCell id="koZzIr1g32_VItgDSHb--32" value="" style="endArrow=classic;html=1;rounded=0;exitX=0;exitY=0.5;exitDx=0;exitDy=0;" parent="1" source="koZzIr1g32_VItgDSHb--6" edge="1">
          <mxGeometry width="50" height="50" relative="1" as="geometry">
            <mxPoint x="450" y="480" as="sourcePoint" />
            <mxPoint x="-520" y="1310" as="targetPoint" />
            <Array as="points">
              <mxPoint x="-520" y="480" />
            </Array>
          </mxGeometry>
        </mxCell>
        <mxCell id="koZzIr1g32_VItgDSHb--33" value="" style="endArrow=classic;html=1;rounded=0;exitX=0.5;exitY=1;exitDx=0;exitDy=0;" parent="1" source="koZzIr1g32_VItgDSHb--6" edge="1">
          <mxGeometry width="50" height="50" relative="1" as="geometry">
            <mxPoint x="1230" y="800" as="sourcePoint" />
            <mxPoint x="1590" y="580" as="targetPoint" />
            <Array as="points">
              <mxPoint x="1310" y="580" />
            </Array>
          </mxGeometry>
        </mxCell>
        <mxCell id="koZzIr1g32_VItgDSHb--34" value="&lt;font style=&quot;font-size: 18px;&quot;&gt;&lt;b&gt;Flush&lt;/b&gt;&lt;/font&gt;&lt;div style=&quot;font-size: 18px;&quot;&gt;&lt;font style=&quot;font-size: 18px;&quot;&gt;&lt;br&gt;&lt;/font&gt;&lt;/div&gt;" style="text;html=1;align=center;verticalAlign=middle;whiteSpace=wrap;rounded=0;" parent="1" vertex="1">
          <mxGeometry x="1050" y="560" width="160" height="10" as="geometry" />
        </mxCell>
        <mxCell id="koZzIr1g32_VItgDSHb--35" style="edgeStyle=none;rounded=0;orthogonalLoop=1;jettySize=auto;html=1;exitX=0.5;exitY=0;exitDx=0;exitDy=0;" parent="1" source="koZzIr1g32_VItgDSHb--34" target="koZzIr1g32_VItgDSHb--34" edge="1">
          <mxGeometry relative="1" as="geometry" />
        </mxCell>
        <mxCell id="koZzIr1g32_VItgDSHb--37" style="edgeStyle=none;rounded=0;orthogonalLoop=1;jettySize=auto;html=1;exitX=0.5;exitY=0;exitDx=0;exitDy=0;" parent="1" source="koZzIr1g32_VItgDSHb--34" target="koZzIr1g32_VItgDSHb--34" edge="1">
          <mxGeometry relative="1" as="geometry" />
        </mxCell>
        <mxCell id="koZzIr1g32_VItgDSHb--39" value="" style="endArrow=none;html=1;rounded=0;exitX=0.5;exitY=0;exitDx=0;exitDy=0;" parent="1" source="lDUNnZKXfMlLJSPLOupV-31" edge="1">
          <mxGeometry width="50" height="50" relative="1" as="geometry">
            <mxPoint x="1230" y="850" as="sourcePoint" />
            <mxPoint x="880" y="580" as="targetPoint" />
          </mxGeometry>
        </mxCell>
        <mxCell id="koZzIr1g32_VItgDSHb--40" value="" style="endArrow=none;html=1;rounded=0;exitX=0.5;exitY=0;exitDx=0;exitDy=0;" parent="1" edge="1">
          <mxGeometry width="50" height="50" relative="1" as="geometry">
            <mxPoint x="1590" y="840" as="sourcePoint" />
            <mxPoint x="1591" y="580" as="targetPoint" />
          </mxGeometry>
        </mxCell>
        <mxCell id="koZzIr1g32_VItgDSHb--41" value="" style="endArrow=none;html=1;rounded=0;" parent="1" edge="1">
          <mxGeometry width="50" height="50" relative="1" as="geometry">
            <mxPoint x="620" y="620" as="sourcePoint" />
            <mxPoint x="750" y="580" as="targetPoint" />
            <Array as="points">
              <mxPoint x="750" y="620" />
            </Array>
          </mxGeometry>
        </mxCell>
        <mxCell id="koZzIr1g32_VItgDSHb--42" value="ExResult" style="text;html=1;align=center;verticalAlign=middle;whiteSpace=wrap;rounded=0;" parent="1" vertex="1">
          <mxGeometry x="1400" y="1860" width="60" height="30" as="geometry" />
        </mxCell>
        <mxCell id="koZzIr1g32_VItgDSHb--43" value="ExDST" style="text;html=1;align=center;verticalAlign=middle;whiteSpace=wrap;rounded=0;" parent="1" vertex="1">
          <mxGeometry x="1510" y="1890" width="60" height="30" as="geometry" />
        </mxCell>
        <mxCell id="koZzIr1g32_VItgDSHb--44" value="MResult" style="text;html=1;align=center;verticalAlign=middle;whiteSpace=wrap;rounded=0;" parent="1" vertex="1">
          <mxGeometry x="1640" y="1910" width="60" height="30" as="geometry" />
        </mxCell>
        <mxCell id="koZzIr1g32_VItgDSHb--45" value="MDst" style="text;html=1;align=center;verticalAlign=middle;whiteSpace=wrap;rounded=0;" parent="1" vertex="1">
          <mxGeometry x="1810" y="1950" width="60" height="30" as="geometry" />
        </mxCell>
        <mxCell id="koZzIr1g32_VItgDSHb--46" value="SRC1" style="text;html=1;align=center;verticalAlign=middle;whiteSpace=wrap;rounded=0;" parent="1" vertex="1">
          <mxGeometry x="1093" y="1880" width="60" height="30" as="geometry" />
        </mxCell>
        <mxCell id="koZzIr1g32_VItgDSHb--47" value="SRC2" style="text;html=1;align=center;verticalAlign=middle;whiteSpace=wrap;rounded=0;" parent="1" vertex="1">
          <mxGeometry x="1043" y="1950" width="60" height="30" as="geometry" />
        </mxCell>
        <mxCell id="koZzIr1g32_VItgDSHb--49" value="" style="endArrow=classic;html=1;rounded=0;exitX=0.336;exitY=-0.003;exitDx=0;exitDy=0;exitPerimeter=0;entryX=0;entryY=1;entryDx=0;entryDy=0;" parent="1" edge="1">
          <mxGeometry width="50" height="50" relative="1" as="geometry">
            <mxPoint x="1212.1200000000003" y="1860" as="sourcePoint" />
            <mxPoint x="1073.4006024866721" y="1179.3093975133283" as="targetPoint" />
            <Array as="points">
              <mxPoint x="1212.71" y="1670" />
              <mxPoint x="1181.71" y="1670" />
              <mxPoint x="1102.71" y="1670" />
              <mxPoint x="1033.71" y="1670" />
              <mxPoint x="1033.3" y="1220" />
              <mxPoint x="1033.3" y="1179" />
            </Array>
          </mxGeometry>
        </mxCell>
        <mxCell id="koZzIr1g32_VItgDSHb--50" value="Selector" style="text;html=1;align=center;verticalAlign=middle;whiteSpace=wrap;rounded=0;" parent="1" vertex="1">
          <mxGeometry x="1330" y="1480" width="60" height="30" as="geometry" />
        </mxCell>
        <mxCell id="koZzIr1g32_VItgDSHb--51" value="" style="endArrow=classic;html=1;rounded=0;exitX=1;exitY=0.5;exitDx=0;exitDy=0;" parent="1" source="koZzIr1g32_VItgDSHb--10" edge="1">
          <mxGeometry width="50" height="50" relative="1" as="geometry">
            <mxPoint x="1170" y="1440" as="sourcePoint" />
            <mxPoint x="1170" y="1300" as="targetPoint" />
            <Array as="points">
              <mxPoint x="1153" y="1300" />
            </Array>
          </mxGeometry>
        </mxCell>
        <mxCell id="koZzIr1g32_VItgDSHb--52" value="" style="endArrow=classic;html=1;rounded=0;entryX=-0.082;entryY=0.336;entryDx=0;entryDy=0;entryPerimeter=0;" parent="1" target="koZzIr1g32_VItgDSHb--10" edge="1">
          <mxGeometry width="50" height="50" relative="1" as="geometry">
            <mxPoint x="1030" y="1238.33" as="sourcePoint" />
            <mxPoint x="1070" y="1238" as="targetPoint" />
          </mxGeometry>
        </mxCell>
        <mxCell id="koZzIr1g32_VItgDSHb--54" value="" style="endArrow=classic;html=1;rounded=0;entryX=0;entryY=0.75;entryDx=0;entryDy=0;exitX=1;exitY=0.5;exitDx=0;exitDy=0;" parent="1" source="lDUNnZKXfMlLJSPLOupV-45" target="lDUNnZKXfMlLJSPLOupV-39" edge="1">
          <mxGeometry width="50" height="50" relative="1" as="geometry">
            <mxPoint x="1220" y="1260" as="sourcePoint" />
            <mxPoint x="1270" y="1210" as="targetPoint" />
            <Array as="points">
              <mxPoint x="1250" y="1206" />
            </Array>
          </mxGeometry>
        </mxCell>
        <mxCell id="koZzIr1g32_VItgDSHb--56" value="&lt;div&gt;S1&lt;/div&gt;" style="text;html=1;align=center;verticalAlign=middle;whiteSpace=wrap;rounded=0;" parent="1" vertex="1">
          <mxGeometry x="1080" y="1190" width="60" height="30" as="geometry" />
        </mxCell>
        <mxCell id="koZzIr1g32_VItgDSHb--58" value="" style="edgeStyle=orthogonalEdgeStyle;rounded=0;orthogonalLoop=1;jettySize=auto;html=1;exitX=0.998;exitY=0.941;exitDx=0;exitDy=0;exitPerimeter=0;" parent="1" source="lDUNnZKXfMlLJSPLOupV-31" edge="1">
          <mxGeometry relative="1" as="geometry">
            <mxPoint x="1170" y="1330" as="targetPoint" />
            <mxPoint x="919" y="1527" as="sourcePoint" />
            <Array as="points">
              <mxPoint x="919" y="1470" />
              <mxPoint x="1010" y="1470" />
              <mxPoint x="1010" y="1330" />
            </Array>
          </mxGeometry>
        </mxCell>
        <mxCell id="koZzIr1g32_VItgDSHb--64" value="Imm_V" style="text;html=1;align=center;verticalAlign=middle;whiteSpace=wrap;rounded=0;" parent="1" vertex="1">
          <mxGeometry x="1050" y="1301.5" width="60" height="30" as="geometry" />
        </mxCell>
        <mxCell id="koZzIr1g32_VItgDSHb--66" value="S2&lt;div&gt;&lt;br&gt;&lt;/div&gt;" style="text;html=1;align=center;verticalAlign=middle;whiteSpace=wrap;rounded=0;" parent="1" vertex="1">
          <mxGeometry x="1086.5" y="1290" width="60" height="30" as="geometry" />
        </mxCell>
        <mxCell id="koZzIr1g32_VItgDSHb--67" value="" style="endArrow=classic;html=1;rounded=0;exitX=0.5;exitY=0;exitDx=0;exitDy=0;" parent="1" source="koZzIr1g32_VItgDSHb--7" edge="1">
          <mxGeometry width="50" height="50" relative="1" as="geometry">
            <mxPoint x="920" y="1690" as="sourcePoint" />
            <mxPoint x="1280" y="1790" as="targetPoint" />
          </mxGeometry>
        </mxCell>
        <mxCell id="koZzIr1g32_VItgDSHb--69" value="" style="endArrow=classic;html=1;rounded=0;exitX=0.5;exitY=0;exitDx=0;exitDy=0;" parent="1" edge="1">
          <mxGeometry width="50" height="50" relative="1" as="geometry">
            <mxPoint x="1310" y="1840" as="sourcePoint" />
            <mxPoint x="1310" y="1790" as="targetPoint" />
          </mxGeometry>
        </mxCell>
        <mxCell id="koZzIr1g32_VItgDSHb--70" value="S1" style="text;html=1;align=center;verticalAlign=middle;whiteSpace=wrap;rounded=0;" parent="1" vertex="1">
          <mxGeometry x="1240" y="1760" width="60" height="30" as="geometry" />
        </mxCell>
        <mxCell id="koZzIr1g32_VItgDSHb--71" value="S2" style="text;html=1;align=center;verticalAlign=middle;whiteSpace=wrap;rounded=0;" parent="1" vertex="1">
          <mxGeometry x="1290" y="1760" width="60" height="30" as="geometry" />
        </mxCell>
        <mxCell id="X9EgiII1LPLqyLBVRDpv-1" value="" style="endArrow=classic;html=1;rounded=0;entryX=0;entryY=1;entryDx=0;entryDy=0;exitX=0.25;exitY=1;exitDx=0;exitDy=0;" parent="1" source="lDUNnZKXfMlLJSPLOupV-50" target="X9EgiII1LPLqyLBVRDpv-2" edge="1">
          <mxGeometry width="50" height="50" relative="1" as="geometry">
            <mxPoint x="1581" y="1570" as="sourcePoint" />
            <mxPoint x="1380" y="1860" as="targetPoint" />
            <Array as="points">
              <mxPoint x="1581" y="1858" />
            </Array>
          </mxGeometry>
        </mxCell>
        <mxCell id="X9EgiII1LPLqyLBVRDpv-2" value="MEMTOREG" style="text;html=1;align=center;verticalAlign=middle;whiteSpace=wrap;rounded=0;" parent="1" vertex="1">
          <mxGeometry x="1370" y="1830" width="60" height="30" as="geometry" />
        </mxCell>
        <mxCell id="X9EgiII1LPLqyLBVRDpv-4" value="" style="shape=xor;whiteSpace=wrap;html=1;rotation=90;direction=south;" parent="1" vertex="1">
          <mxGeometry x="820" y="450" width="50" height="40" as="geometry" />
        </mxCell>
        <mxCell id="X9EgiII1LPLqyLBVRDpv-5" value="" style="edgeStyle=none;orthogonalLoop=1;jettySize=auto;html=1;rounded=0;" parent="1" edge="1">
          <mxGeometry width="100" relative="1" as="geometry">
            <mxPoint x="820" y="479" as="sourcePoint" />
            <mxPoint x="710" y="479" as="targetPoint" />
            <Array as="points" />
          </mxGeometry>
        </mxCell>
        <mxCell id="X9EgiII1LPLqyLBVRDpv-6" value="" style="endArrow=classic;html=1;rounded=0;" parent="1" edge="1">
          <mxGeometry width="50" height="50" relative="1" as="geometry">
            <mxPoint x="-520" y="880" as="sourcePoint" />
            <mxPoint x="180" y="880" as="targetPoint" />
          </mxGeometry>
        </mxCell>
        <mxCell id="X9EgiII1LPLqyLBVRDpv-9" value="LastPred" style="text;html=1;align=center;verticalAlign=middle;whiteSpace=wrap;rounded=0;" parent="1" vertex="1">
          <mxGeometry x="-187" y="840" width="60" height="30" as="geometry" />
        </mxCell>
        <mxCell id="X9EgiII1LPLqyLBVRDpv-10" value="" style="endArrow=classic;html=1;rounded=0;" parent="1" edge="1">
          <mxGeometry width="50" height="50" relative="1" as="geometry">
            <mxPoint x="-480" y="1040" as="sourcePoint" />
            <mxPoint x="193" y="939" as="targetPoint" />
            <Array as="points">
              <mxPoint x="-480" y="939" />
            </Array>
          </mxGeometry>
        </mxCell>
        <mxCell id="X9EgiII1LPLqyLBVRDpv-11" value="PCBeforePred" style="text;html=1;align=center;verticalAlign=middle;whiteSpace=wrap;rounded=0;" parent="1" vertex="1">
          <mxGeometry x="-187" y="910" width="60" height="30" as="geometry" />
        </mxCell>
        <mxCell id="X9EgiII1LPLqyLBVRDpv-12" value="" style="endArrow=classic;html=1;rounded=0;entryX=0.993;entryY=0.712;entryDx=0;entryDy=0;entryPerimeter=0;" parent="1" target="koZzIr1g32_VItgDSHb--6" edge="1">
          <mxGeometry width="50" height="50" relative="1" as="geometry">
            <mxPoint x="1620" y="830" as="sourcePoint" />
            <mxPoint x="710" y="510" as="targetPoint" />
            <Array as="points">
              <mxPoint x="1620" y="522" />
            </Array>
          </mxGeometry>
        </mxCell>
        <mxCell id="X9EgiII1LPLqyLBVRDpv-13" value="LastPred" style="text;html=1;align=center;verticalAlign=middle;whiteSpace=wrap;rounded=0;" parent="1" vertex="1">
          <mxGeometry x="1380" y="490" width="60" height="30" as="geometry" />
        </mxCell>
        <mxCell id="X9EgiII1LPLqyLBVRDpv-14" value="" style="endArrow=classic;html=1;rounded=0;exitX=0.025;exitY=0.704;exitDx=0;exitDy=0;exitPerimeter=0;entryX=1;entryY=0;entryDx=0;entryDy=0;" parent="1" target="lDUNnZKXfMlLJSPLOupV-17" edge="1">
          <mxGeometry width="50" height="50" relative="1" as="geometry">
            <mxPoint x="470" y="509.99999999999994" as="sourcePoint" />
            <mxPoint x="-486" y="749.2" as="targetPoint" />
            <Array as="points">
              <mxPoint x="-486" y="510.2" />
            </Array>
          </mxGeometry>
        </mxCell>
        <mxCell id="X9EgiII1LPLqyLBVRDpv-15" value="WrongPrediction" style="text;html=1;align=center;verticalAlign=middle;whiteSpace=wrap;rounded=0;" parent="1" vertex="1">
          <mxGeometry x="-430" y="530" width="60" height="30" as="geometry" />
        </mxCell>
        <mxCell id="X9EgiII1LPLqyLBVRDpv-16" value="" style="endArrow=classic;html=1;rounded=0;" parent="1" edge="1">
          <mxGeometry width="50" height="50" relative="1" as="geometry">
            <mxPoint x="1570" y="830" as="sourcePoint" />
            <mxPoint x="-570" y="1370" as="targetPoint" />
            <Array as="points">
              <mxPoint x="1570" y="660" />
              <mxPoint x="-890" y="670" />
              <mxPoint x="-890" y="1370" />
              <mxPoint x="-730" y="1370" />
              <mxPoint x="-630" y="1370" />
            </Array>
          </mxGeometry>
        </mxCell>
        <mxCell id="X9EgiII1LPLqyLBVRDpv-17" value="&lt;font style=&quot;font-size: 18px;&quot;&gt;PCbeforepred&lt;/font&gt;" style="text;html=1;align=center;verticalAlign=middle;whiteSpace=wrap;rounded=0;" parent="1" vertex="1">
          <mxGeometry x="1360" y="630" width="60" height="30" as="geometry" />
        </mxCell>
        <mxCell id="X9EgiII1LPLqyLBVRDpv-23" value="S" style="edgeStyle=orthogonalEdgeStyle;rounded=0;orthogonalLoop=1;jettySize=auto;html=1;entryX=-0.025;entryY=0.082;entryDx=0;entryDy=0;entryPerimeter=0;" parent="1" target="lDUNnZKXfMlLJSPLOupV-5" edge="1">
          <mxGeometry relative="1" as="geometry">
            <Array as="points">
              <mxPoint x="560" y="743" />
              <mxPoint x="80" y="743" />
              <mxPoint x="80" y="910" />
              <mxPoint x="200" y="910" />
            </Array>
            <mxPoint x="560" y="843" as="sourcePoint" />
            <mxPoint x="170" y="910" as="targetPoint" />
          </mxGeometry>
        </mxCell>
        <mxCell id="X9EgiII1LPLqyLBVRDpv-24" value="&lt;font style=&quot;font-size: 14px;&quot;&gt;SwapedFlag&lt;/font&gt;&lt;div&gt;&lt;br&gt;&lt;/div&gt;" style="edgeLabel;html=1;align=center;verticalAlign=middle;resizable=0;points=[];" parent="X9EgiII1LPLqyLBVRDpv-23" vertex="1" connectable="0">
          <mxGeometry x="-0.0114" y="-1" relative="1" as="geometry">
            <mxPoint as="offset" />
          </mxGeometry>
        </mxCell>
        <mxCell id="pzNhr9gsS4aFCZHYoq7B-4" style="edgeStyle=orthogonalEdgeStyle;rounded=0;orthogonalLoop=1;jettySize=auto;html=1;exitX=0.5;exitY=1;exitDx=0;exitDy=0;entryX=0;entryY=0.5;entryDx=0;entryDy=0;" edge="1" parent="1" source="Ecp2xdZPeIfjH8BMsN1N-1" target="pzNhr9gsS4aFCZHYoq7B-3">
          <mxGeometry relative="1" as="geometry" />
        </mxCell>
        <mxCell id="Ecp2xdZPeIfjH8BMsN1N-1" value="MUX" style="ellipse;whiteSpace=wrap;html=1;aspect=fixed;" parent="1" vertex="1">
          <mxGeometry x="-580" y="1440" width="90" height="90" as="geometry" />
        </mxCell>
        <mxCell id="Ecp2xdZPeIfjH8BMsN1N-5" value="CALL_SIG" style="endArrow=classic;html=1;rounded=0;exitX=0.782;exitY=0.095;exitDx=0;exitDy=0;exitPerimeter=0;" parent="1" source="lDUNnZKXfMlLJSPLOupV-30" edge="1">
          <mxGeometry width="50" height="50" relative="1" as="geometry">
            <mxPoint x="740" y="830" as="sourcePoint" />
            <mxPoint x="620" y="640" as="targetPoint" />
            <Array as="points">
              <mxPoint x="670" y="640" />
            </Array>
          </mxGeometry>
        </mxCell>
        <mxCell id="Ecp2xdZPeIfjH8BMsN1N-7" value="" style="shape=xor;whiteSpace=wrap;html=1;rotation=90;direction=south;" parent="1" vertex="1">
          <mxGeometry x="575" y="610" width="50" height="40" as="geometry" />
        </mxCell>
        <mxCell id="Ecp2xdZPeIfjH8BMsN1N-8" value="" style="endArrow=classic;html=1;rounded=0;exitX=1;exitY=0.5;exitDx=0;exitDy=0;exitPerimeter=0;entryX=0.5;entryY=0;entryDx=0;entryDy=0;" parent="1" source="Ecp2xdZPeIfjH8BMsN1N-7" target="lDUNnZKXfMlLJSPLOupV-5" edge="1">
          <mxGeometry width="50" height="50" relative="1" as="geometry">
            <mxPoint x="410" y="630" as="sourcePoint" />
            <mxPoint x="230" y="630" as="targetPoint" />
            <Array as="points">
              <mxPoint x="240" y="630" />
            </Array>
          </mxGeometry>
        </mxCell>
        <mxCell id="Ecp2xdZPeIfjH8BMsN1N-9" value="&lt;font style=&quot;font-size: 18px;&quot;&gt;FlushBUFF1&lt;/font&gt;" style="text;html=1;align=center;verticalAlign=middle;whiteSpace=wrap;rounded=0;" parent="1" vertex="1">
          <mxGeometry x="310" y="600" width="60" height="30" as="geometry" />
        </mxCell>
        <mxCell id="pzNhr9gsS4aFCZHYoq7B-31" style="edgeStyle=orthogonalEdgeStyle;rounded=0;orthogonalLoop=1;jettySize=auto;html=1;exitX=1;exitY=0.5;exitDx=0;exitDy=0;entryX=0;entryY=0.5;entryDx=0;entryDy=0;" edge="1" parent="1" source="pzNhr9gsS4aFCZHYoq7B-3" target="lDUNnZKXfMlLJSPLOupV-2">
          <mxGeometry relative="1" as="geometry" />
        </mxCell>
        <mxCell id="pzNhr9gsS4aFCZHYoq7B-3" value="MUX" style="ellipse;whiteSpace=wrap;html=1;aspect=fixed;" vertex="1" parent="1">
          <mxGeometry x="-580" y="1584" width="90" height="90" as="geometry" />
        </mxCell>
        <mxCell id="pzNhr9gsS4aFCZHYoq7B-9" style="edgeStyle=orthogonalEdgeStyle;rounded=0;orthogonalLoop=1;jettySize=auto;html=1;exitX=1;exitY=0.5;exitDx=0;exitDy=0;entryX=0;entryY=0.5;entryDx=0;entryDy=0;" edge="1" parent="1" source="pzNhr9gsS4aFCZHYoq7B-6" target="lDUNnZKXfMlLJSPLOupV-67">
          <mxGeometry relative="1" as="geometry" />
        </mxCell>
        <mxCell id="pzNhr9gsS4aFCZHYoq7B-6" value="MUX" style="ellipse;whiteSpace=wrap;html=1;aspect=fixed;" vertex="1" parent="1">
          <mxGeometry x="1733" y="1331.5" width="60" height="60" as="geometry" />
        </mxCell>
        <mxCell id="pzNhr9gsS4aFCZHYoq7B-7" style="edgeStyle=orthogonalEdgeStyle;rounded=0;orthogonalLoop=1;jettySize=auto;html=1;exitX=1.044;exitY=0.335;exitDx=0;exitDy=0;entryX=-0.05;entryY=0.642;entryDx=0;entryDy=0;entryPerimeter=0;exitPerimeter=0;" edge="1" parent="1" source="lDUNnZKXfMlLJSPLOupV-50" target="pzNhr9gsS4aFCZHYoq7B-6">
          <mxGeometry relative="1" as="geometry">
            <Array as="points">
              <mxPoint x="1650" y="1068" />
              <mxPoint x="1650" y="1370" />
            </Array>
          </mxGeometry>
        </mxCell>
        <mxCell id="pzNhr9gsS4aFCZHYoq7B-12" style="edgeStyle=orthogonalEdgeStyle;rounded=0;orthogonalLoop=1;jettySize=auto;html=1;exitX=1;exitY=0.5;exitDx=0;exitDy=0;exitPerimeter=0;entryX=0.5;entryY=0;entryDx=0;entryDy=0;" edge="1" parent="1" source="pzNhr9gsS4aFCZHYoq7B-10" target="pzNhr9gsS4aFCZHYoq7B-6">
          <mxGeometry relative="1" as="geometry">
            <Array as="points">
              <mxPoint x="2160" y="1170" />
              <mxPoint x="1820" y="1170" />
              <mxPoint x="1820" y="1332" />
            </Array>
          </mxGeometry>
        </mxCell>
        <mxCell id="pzNhr9gsS4aFCZHYoq7B-17" style="edgeStyle=orthogonalEdgeStyle;rounded=0;orthogonalLoop=1;jettySize=auto;html=1;exitX=1;exitY=0.5;exitDx=0;exitDy=0;exitPerimeter=0;entryX=0.5;entryY=0;entryDx=0;entryDy=0;" edge="1" parent="1" source="pzNhr9gsS4aFCZHYoq7B-10" target="lDUNnZKXfMlLJSPLOupV-50">
          <mxGeometry relative="1" as="geometry">
            <Array as="points">
              <mxPoint x="2160" y="1060" />
              <mxPoint x="2130" y="1060" />
              <mxPoint x="2130" y="740" />
              <mxPoint x="1600" y="740" />
            </Array>
          </mxGeometry>
        </mxCell>
        <mxCell id="pzNhr9gsS4aFCZHYoq7B-19" style="edgeStyle=orthogonalEdgeStyle;rounded=0;orthogonalLoop=1;jettySize=auto;html=1;exitX=1;exitY=0.5;exitDx=0;exitDy=0;exitPerimeter=0;entryX=0.25;entryY=0;entryDx=0;entryDy=0;" edge="1" parent="1" source="pzNhr9gsS4aFCZHYoq7B-10" target="lDUNnZKXfMlLJSPLOupV-5">
          <mxGeometry relative="1" as="geometry">
            <Array as="points">
              <mxPoint x="2160" y="1060" />
              <mxPoint x="2130" y="1060" />
              <mxPoint x="2130" y="740" />
              <mxPoint x="222" y="740" />
            </Array>
          </mxGeometry>
        </mxCell>
        <mxCell id="pzNhr9gsS4aFCZHYoq7B-10" value="" style="shape=xor;whiteSpace=wrap;html=1;rotation=90;" vertex="1" parent="1">
          <mxGeometry x="2140" y="980" width="40" height="50" as="geometry" />
        </mxCell>
        <mxCell id="pzNhr9gsS4aFCZHYoq7B-13" value="CALL_SIG , INT_SIG , RET , RTI" style="edgeStyle=orthogonalEdgeStyle;rounded=0;orthogonalLoop=1;jettySize=auto;html=1;exitX=1;exitY=0;exitDx=0;exitDy=0;entryX=0.25;entryY=0.5;entryDx=0;entryDy=0;entryPerimeter=0;" edge="1" parent="1" source="lDUNnZKXfMlLJSPLOupV-50" target="pzNhr9gsS4aFCZHYoq7B-10">
          <mxGeometry relative="1" as="geometry">
            <Array as="points">
              <mxPoint x="1640" y="820" />
              <mxPoint x="2160" y="820" />
            </Array>
          </mxGeometry>
        </mxCell>
        <mxCell id="pzNhr9gsS4aFCZHYoq7B-15" value="INT_SIG" style="edgeStyle=orthogonalEdgeStyle;rounded=0;orthogonalLoop=1;jettySize=auto;html=1;exitX=1;exitY=0;exitDx=0;exitDy=0;entryX=0.096;entryY=0.37;entryDx=0;entryDy=0;entryPerimeter=0;" edge="1" parent="1">
          <mxGeometry x="-0.3245" y="-2" relative="1" as="geometry">
            <mxPoint x="1640" y="837.7899999999997" as="sourcePoint" />
            <mxPoint x="1931.5200000000004" y="979.9899999999998" as="targetPoint" />
            <Array as="points">
              <mxPoint x="1640" y="817.79" />
              <mxPoint x="1870" y="817.79" />
              <mxPoint x="1870" y="979.79" />
            </Array>
            <mxPoint as="offset" />
          </mxGeometry>
        </mxCell>
        <mxCell id="pzNhr9gsS4aFCZHYoq7B-16" style="edgeStyle=orthogonalEdgeStyle;rounded=0;orthogonalLoop=1;jettySize=auto;html=1;exitX=1;exitY=0.5;exitDx=0;exitDy=0;exitPerimeter=0;entryX=0.25;entryY=0.5;entryDx=0;entryDy=0;entryPerimeter=0;" edge="1" parent="1" source="pzNhr9gsS4aFCZHYoq7B-10" target="a2ysGBZpHkb-Z4tsZmfe-1">
          <mxGeometry relative="1" as="geometry">
            <Array as="points">
              <mxPoint x="2160" y="1030" />
              <mxPoint x="1763" y="1030" />
            </Array>
          </mxGeometry>
        </mxCell>
        <mxCell id="pzNhr9gsS4aFCZHYoq7B-18" value="FLUSH" style="edgeStyle=orthogonalEdgeStyle;rounded=0;orthogonalLoop=1;jettySize=auto;html=1;entryX=0.5;entryY=0;entryDx=0;entryDy=0;exitX=1;exitY=0.5;exitDx=0;exitDy=0;exitPerimeter=0;" edge="1" parent="1" source="pzNhr9gsS4aFCZHYoq7B-10" target="lDUNnZKXfMlLJSPLOupV-31">
          <mxGeometry relative="1" as="geometry">
            <mxPoint x="2160" y="1030" as="sourcePoint" />
            <mxPoint x="1610" y="850" as="targetPoint" />
            <Array as="points">
              <mxPoint x="2160" y="1060" />
              <mxPoint x="2130" y="1060" />
              <mxPoint x="2130" y="740" />
              <mxPoint x="880" y="740" />
              <mxPoint x="880" y="850" />
              <mxPoint x="879" y="850" />
            </Array>
          </mxGeometry>
        </mxCell>
        <mxCell id="pzNhr9gsS4aFCZHYoq7B-20" value="RTI" style="edgeStyle=orthogonalEdgeStyle;rounded=0;orthogonalLoop=1;jettySize=auto;html=1;exitX=1;exitY=0;exitDx=0;exitDy=0;entryX=0.25;entryY=0.5;entryDx=0;entryDy=0;entryPerimeter=0;" edge="1" parent="1" source="lDUNnZKXfMlLJSPLOupV-50" target="a2ysGBZpHkb-Z4tsZmfe-1">
          <mxGeometry relative="1" as="geometry">
            <Array as="points">
              <mxPoint x="1640" y="830" />
              <mxPoint x="1763" y="830" />
            </Array>
          </mxGeometry>
        </mxCell>
        <mxCell id="pzNhr9gsS4aFCZHYoq7B-21" value="RET" style="edgeStyle=orthogonalEdgeStyle;rounded=0;orthogonalLoop=1;jettySize=auto;html=1;exitX=1;exitY=0;exitDx=0;exitDy=0;entryX=0.054;entryY=0.144;entryDx=0;entryDy=0;entryPerimeter=0;" edge="1" parent="1" target="a2ysGBZpHkb-Z4tsZmfe-1">
          <mxGeometry relative="1" as="geometry">
            <mxPoint x="1650" y="850" as="sourcePoint" />
            <mxPoint x="1773" y="1130" as="targetPoint" />
            <Array as="points">
              <mxPoint x="1640" y="850" />
              <mxPoint x="1640" y="840" />
              <mxPoint x="1790" y="840" />
              <mxPoint x="1790" y="1100" />
              <mxPoint x="1781" y="1100" />
            </Array>
          </mxGeometry>
        </mxCell>
        <mxCell id="pzNhr9gsS4aFCZHYoq7B-22" value="INTERRUPT" style="endArrow=classic;html=1;rounded=0;" edge="1" parent="1">
          <mxGeometry width="50" height="50" relative="1" as="geometry">
            <mxPoint x="-430" y="1490" as="sourcePoint" />
            <mxPoint x="-380" y="1440" as="targetPoint" />
          </mxGeometry>
        </mxCell>
        <mxCell id="pzNhr9gsS4aFCZHYoq7B-24" value="Reset" style="endArrow=classic;html=1;rounded=0;" edge="1" parent="1">
          <mxGeometry width="50" height="50" relative="1" as="geometry">
            <mxPoint x="-370" y="1490" as="sourcePoint" />
            <mxPoint x="-320" y="1440" as="targetPoint" />
          </mxGeometry>
        </mxCell>
        <mxCell id="pzNhr9gsS4aFCZHYoq7B-25" value="RET , RTI" style="endArrow=classic;html=1;rounded=0;entryX=0.62;entryY=-0.022;entryDx=0;entryDy=0;entryPerimeter=0;" edge="1" parent="1">
          <mxGeometry width="50" height="50" relative="1" as="geometry">
            <mxPoint x="-460" y="1550" as="sourcePoint" />
            <mxPoint x="-524.1999999999998" y="1588.02" as="targetPoint" />
          </mxGeometry>
        </mxCell>
        <mxCell id="pzNhr9gsS4aFCZHYoq7B-26" value="CALL_SIG" style="endArrow=classic;html=1;rounded=0;entryX=0.62;entryY=-0.022;entryDx=0;entryDy=0;entryPerimeter=0;" edge="1" parent="1">
          <mxGeometry width="50" height="50" relative="1" as="geometry">
            <mxPoint x="-455.8" y="1405" as="sourcePoint" />
            <mxPoint x="-519.9999999999998" y="1443.02" as="targetPoint" />
          </mxGeometry>
        </mxCell>
        <mxCell id="pzNhr9gsS4aFCZHYoq7B-27" style="edgeStyle=orthogonalEdgeStyle;rounded=0;orthogonalLoop=1;jettySize=auto;html=1;entryX=-0.007;entryY=0.847;entryDx=0;entryDy=0;entryPerimeter=0;" edge="1" parent="1" target="lDUNnZKXfMlLJSPLOupV-67">
          <mxGeometry relative="1" as="geometry">
            <mxPoint x="1640" y="1400" as="sourcePoint" />
          </mxGeometry>
        </mxCell>
        <mxCell id="pzNhr9gsS4aFCZHYoq7B-30" value="RTI" style="endArrow=classic;html=1;rounded=0;entryX=0.75;entryY=1;entryDx=0;entryDy=0;" edge="1" parent="1">
          <mxGeometry width="50" height="50" relative="1" as="geometry">
            <mxPoint x="1200" y="1470" as="sourcePoint" />
            <mxPoint x="1253" y="1440" as="targetPoint" />
          </mxGeometry>
        </mxCell>
      </root>
    </mxGraphModel>
  </diagram>
</mxfile>
